<mxfile host="app.diagrams.net" modified="2023-05-06T04:10:54.201Z" agent="Mozilla/5.0 (Windows NT 10.0; Win64; x64) AppleWebKit/537.36 (KHTML, like Gecko) Chrome/114.0.0.0 Safari/537.36 Edg/114.0.0.0" etag="cSqPaVc5NaKskH2Brcb_" version="21.2.9" type="github">
  <diagram name="第 1 页" id="F1OaBbWz24oC9GuwH90U">
    <mxGraphModel dx="1462" dy="1560" grid="1" gridSize="10" guides="1" tooltips="1" connect="1" arrows="1" fold="1" page="1" pageScale="1" pageWidth="850" pageHeight="1100" math="0" shadow="0">
      <root>
        <mxCell id="0" />
        <mxCell id="1" parent="0" />
        <mxCell id="BvFk9DYRYYywMg2uubC_-1" value="" style="group" vertex="1" connectable="0" parent="1">
          <mxGeometry x="287" y="190" width="80" height="80" as="geometry" />
        </mxCell>
        <mxCell id="BvFk9DYRYYywMg2uubC_-2" value="" style="rounded=1;strokeWidth=2;fillWeight=4;hachureGap=8;hachureAngle=45;fillColor=none;sketch=1;fillStyle=dashed;movable=1;resizable=1;rotatable=1;deletable=1;editable=1;locked=0;connectable=1;labelBackgroundColor=none;labelBorderColor=none;fontColor=none;noLabel=1;html=1;container=0;" vertex="1" parent="BvFk9DYRYYywMg2uubC_-1">
          <mxGeometry width="80" height="80" as="geometry" />
        </mxCell>
        <mxCell id="BvFk9DYRYYywMg2uubC_-3" value="Tab" style="text;whiteSpace=wrap;labelBackgroundColor=none;fontSize=13;align=center;verticalAlign=middle;fontColor=#000000;html=1;container=0;" vertex="1" parent="BvFk9DYRYYywMg2uubC_-1">
          <mxGeometry width="40" height="40" as="geometry" />
        </mxCell>
        <mxCell id="BvFk9DYRYYywMg2uubC_-4" value="Page&lt;br&gt;Up&lt;br&gt;" style="text;whiteSpace=wrap;labelBackgroundColor=none;fontColor=#0000CC;fontSize=13;align=center;verticalAlign=middle;html=1;container=0;" vertex="1" parent="BvFk9DYRYYywMg2uubC_-1">
          <mxGeometry x="40" width="40" height="40" as="geometry" />
        </mxCell>
        <mxCell id="BvFk9DYRYYywMg2uubC_-5" value="Tab" style="text;whiteSpace=wrap;labelBackgroundColor=none;fontColor=#00CC00;fontSize=13;align=center;verticalAlign=middle;html=1;container=0;" vertex="1" parent="BvFk9DYRYYywMg2uubC_-1">
          <mxGeometry y="40" width="40" height="40" as="geometry" />
        </mxCell>
        <mxCell id="BvFk9DYRYYywMg2uubC_-6" value="Boot&lt;br&gt;loader&lt;br&gt;" style="text;whiteSpace=wrap;labelBackgroundColor=none;fontColor=#FF0000;fontSize=13;align=center;verticalAlign=middle;html=1;container=0;" vertex="1" parent="BvFk9DYRYYywMg2uubC_-1">
          <mxGeometry x="40" y="40" width="40" height="40" as="geometry" />
        </mxCell>
        <mxCell id="BvFk9DYRYYywMg2uubC_-7" value="" style="group" vertex="1" connectable="0" parent="1">
          <mxGeometry x="367" y="190" width="80" height="80" as="geometry" />
        </mxCell>
        <mxCell id="BvFk9DYRYYywMg2uubC_-8" value="" style="rounded=1;strokeWidth=2;fillWeight=4;hachureGap=8;hachureAngle=45;fillColor=none;sketch=1;fillStyle=dashed;movable=1;resizable=1;rotatable=1;deletable=1;editable=1;locked=0;connectable=1;labelBackgroundColor=none;labelBorderColor=none;fontColor=none;noLabel=1;html=1;container=0;" vertex="1" parent="BvFk9DYRYYywMg2uubC_-7">
          <mxGeometry width="80" height="80" as="geometry" />
        </mxCell>
        <mxCell id="BvFk9DYRYYywMg2uubC_-9" value="Tab" style="text;whiteSpace=wrap;labelBackgroundColor=none;fontSize=13;align=center;verticalAlign=middle;fontColor=#000000;html=1;container=0;" vertex="1" parent="BvFk9DYRYYywMg2uubC_-7">
          <mxGeometry width="40" height="40" as="geometry" />
        </mxCell>
        <mxCell id="BvFk9DYRYYywMg2uubC_-10" value="Page&lt;br&gt;Up&lt;br&gt;" style="text;whiteSpace=wrap;labelBackgroundColor=none;fontColor=#0000CC;fontSize=13;align=center;verticalAlign=middle;html=1;container=0;" vertex="1" parent="BvFk9DYRYYywMg2uubC_-7">
          <mxGeometry x="40" width="40" height="40" as="geometry" />
        </mxCell>
        <mxCell id="BvFk9DYRYYywMg2uubC_-11" value="Tab" style="text;whiteSpace=wrap;labelBackgroundColor=none;fontColor=#00CC00;fontSize=13;align=center;verticalAlign=middle;html=1;container=0;" vertex="1" parent="BvFk9DYRYYywMg2uubC_-7">
          <mxGeometry y="40" width="40" height="40" as="geometry" />
        </mxCell>
        <mxCell id="BvFk9DYRYYywMg2uubC_-12" value="Boot&lt;br&gt;loader&lt;br&gt;" style="text;whiteSpace=wrap;labelBackgroundColor=none;fontColor=#FF0000;fontSize=13;align=center;verticalAlign=middle;html=1;container=0;" vertex="1" parent="BvFk9DYRYYywMg2uubC_-7">
          <mxGeometry x="40" y="40" width="40" height="40" as="geometry" />
        </mxCell>
        <mxCell id="BvFk9DYRYYywMg2uubC_-13" value="" style="group" vertex="1" connectable="0" parent="1">
          <mxGeometry x="448" y="175" width="80" height="80" as="geometry" />
        </mxCell>
        <mxCell id="BvFk9DYRYYywMg2uubC_-14" value="" style="rounded=1;strokeWidth=2;fillWeight=4;hachureGap=8;hachureAngle=45;fillColor=none;sketch=1;fillStyle=dashed;movable=1;resizable=1;rotatable=1;deletable=1;editable=1;locked=0;connectable=1;labelBackgroundColor=none;labelBorderColor=none;fontColor=none;noLabel=1;html=1;container=0;" vertex="1" parent="BvFk9DYRYYywMg2uubC_-13">
          <mxGeometry width="80" height="80" as="geometry" />
        </mxCell>
        <mxCell id="BvFk9DYRYYywMg2uubC_-15" value="Tab" style="text;whiteSpace=wrap;labelBackgroundColor=none;fontSize=13;align=center;verticalAlign=middle;fontColor=#000000;html=1;container=0;" vertex="1" parent="BvFk9DYRYYywMg2uubC_-13">
          <mxGeometry width="40" height="40" as="geometry" />
        </mxCell>
        <mxCell id="BvFk9DYRYYywMg2uubC_-16" value="Page&lt;br&gt;Up&lt;br&gt;" style="text;whiteSpace=wrap;labelBackgroundColor=none;fontColor=#0000CC;fontSize=13;align=center;verticalAlign=middle;html=1;container=0;" vertex="1" parent="BvFk9DYRYYywMg2uubC_-13">
          <mxGeometry x="40" width="40" height="40" as="geometry" />
        </mxCell>
        <mxCell id="BvFk9DYRYYywMg2uubC_-17" value="Tab" style="text;whiteSpace=wrap;labelBackgroundColor=none;fontColor=#00CC00;fontSize=13;align=center;verticalAlign=middle;html=1;container=0;" vertex="1" parent="BvFk9DYRYYywMg2uubC_-13">
          <mxGeometry y="40" width="40" height="40" as="geometry" />
        </mxCell>
        <mxCell id="BvFk9DYRYYywMg2uubC_-18" value="Boot&lt;br&gt;loader&lt;br&gt;" style="text;whiteSpace=wrap;labelBackgroundColor=none;fontColor=#FF0000;fontSize=13;align=center;verticalAlign=middle;html=1;container=0;" vertex="1" parent="BvFk9DYRYYywMg2uubC_-13">
          <mxGeometry x="40" y="40" width="40" height="40" as="geometry" />
        </mxCell>
        <mxCell id="BvFk9DYRYYywMg2uubC_-19" value="" style="group" vertex="1" connectable="0" parent="1">
          <mxGeometry x="528" y="165" width="80" height="80" as="geometry" />
        </mxCell>
        <mxCell id="BvFk9DYRYYywMg2uubC_-20" value="" style="rounded=1;strokeWidth=2;fillWeight=4;hachureGap=8;hachureAngle=45;fillColor=none;sketch=1;fillStyle=dashed;movable=1;resizable=1;rotatable=1;deletable=1;editable=1;locked=0;connectable=1;labelBackgroundColor=none;labelBorderColor=none;fontColor=none;noLabel=1;html=1;container=0;" vertex="1" parent="BvFk9DYRYYywMg2uubC_-19">
          <mxGeometry width="80" height="80" as="geometry" />
        </mxCell>
        <mxCell id="BvFk9DYRYYywMg2uubC_-21" value="Tab" style="text;whiteSpace=wrap;labelBackgroundColor=none;fontSize=13;align=center;verticalAlign=middle;fontColor=#000000;html=1;container=0;" vertex="1" parent="BvFk9DYRYYywMg2uubC_-19">
          <mxGeometry width="40" height="40" as="geometry" />
        </mxCell>
        <mxCell id="BvFk9DYRYYywMg2uubC_-22" value="Page&lt;br&gt;Up&lt;br&gt;" style="text;whiteSpace=wrap;labelBackgroundColor=none;fontColor=#0000CC;fontSize=13;align=center;verticalAlign=middle;html=1;container=0;" vertex="1" parent="BvFk9DYRYYywMg2uubC_-19">
          <mxGeometry x="40" width="40" height="40" as="geometry" />
        </mxCell>
        <mxCell id="BvFk9DYRYYywMg2uubC_-23" value="Tab" style="text;whiteSpace=wrap;labelBackgroundColor=none;fontColor=#00CC00;fontSize=13;align=center;verticalAlign=middle;html=1;container=0;" vertex="1" parent="BvFk9DYRYYywMg2uubC_-19">
          <mxGeometry y="40" width="40" height="40" as="geometry" />
        </mxCell>
        <mxCell id="BvFk9DYRYYywMg2uubC_-24" value="Boot&lt;br&gt;loader&lt;br&gt;" style="text;whiteSpace=wrap;labelBackgroundColor=none;fontColor=#FF0000;fontSize=13;align=center;verticalAlign=middle;html=1;container=0;" vertex="1" parent="BvFk9DYRYYywMg2uubC_-19">
          <mxGeometry x="40" y="40" width="40" height="40" as="geometry" />
        </mxCell>
        <mxCell id="BvFk9DYRYYywMg2uubC_-25" value="" style="group" vertex="1" connectable="0" parent="1">
          <mxGeometry x="608" y="175" width="80" height="80" as="geometry" />
        </mxCell>
        <mxCell id="BvFk9DYRYYywMg2uubC_-26" value="" style="rounded=1;strokeWidth=2;fillWeight=4;hachureGap=8;hachureAngle=45;fillColor=none;sketch=1;fillStyle=dashed;movable=1;resizable=1;rotatable=1;deletable=1;editable=1;locked=0;connectable=1;labelBackgroundColor=none;labelBorderColor=none;fontColor=none;noLabel=1;html=1;container=0;" vertex="1" parent="BvFk9DYRYYywMg2uubC_-25">
          <mxGeometry width="80" height="80" as="geometry" />
        </mxCell>
        <mxCell id="BvFk9DYRYYywMg2uubC_-27" value="Tab" style="text;whiteSpace=wrap;labelBackgroundColor=none;fontSize=13;align=center;verticalAlign=middle;fontColor=#000000;html=1;container=0;" vertex="1" parent="BvFk9DYRYYywMg2uubC_-25">
          <mxGeometry width="40" height="40" as="geometry" />
        </mxCell>
        <mxCell id="BvFk9DYRYYywMg2uubC_-28" value="Page&lt;br&gt;Up&lt;br&gt;" style="text;whiteSpace=wrap;labelBackgroundColor=none;fontColor=#0000CC;fontSize=13;align=center;verticalAlign=middle;html=1;container=0;" vertex="1" parent="BvFk9DYRYYywMg2uubC_-25">
          <mxGeometry x="40" width="40" height="40" as="geometry" />
        </mxCell>
        <mxCell id="BvFk9DYRYYywMg2uubC_-29" value="Tab" style="text;whiteSpace=wrap;labelBackgroundColor=none;fontColor=#00CC00;fontSize=13;align=center;verticalAlign=middle;html=1;container=0;" vertex="1" parent="BvFk9DYRYYywMg2uubC_-25">
          <mxGeometry y="40" width="40" height="40" as="geometry" />
        </mxCell>
        <mxCell id="BvFk9DYRYYywMg2uubC_-30" value="Boot&lt;br&gt;loader&lt;br&gt;" style="text;whiteSpace=wrap;labelBackgroundColor=none;fontColor=#FF0000;fontSize=13;align=center;verticalAlign=middle;html=1;container=0;" vertex="1" parent="BvFk9DYRYYywMg2uubC_-25">
          <mxGeometry x="40" y="40" width="40" height="40" as="geometry" />
        </mxCell>
        <mxCell id="BvFk9DYRYYywMg2uubC_-31" value="" style="group" vertex="1" connectable="0" parent="1">
          <mxGeometry x="688" y="183" width="80" height="80" as="geometry" />
        </mxCell>
        <mxCell id="BvFk9DYRYYywMg2uubC_-32" value="" style="rounded=1;strokeWidth=2;fillWeight=4;hachureGap=8;hachureAngle=45;fillColor=none;sketch=1;fillStyle=dashed;movable=1;resizable=1;rotatable=1;deletable=1;editable=1;locked=0;connectable=1;labelBackgroundColor=none;labelBorderColor=none;fontColor=none;noLabel=1;html=1;container=0;" vertex="1" parent="BvFk9DYRYYywMg2uubC_-31">
          <mxGeometry width="80" height="80" as="geometry" />
        </mxCell>
        <mxCell id="BvFk9DYRYYywMg2uubC_-33" value="Tab" style="text;whiteSpace=wrap;labelBackgroundColor=none;fontSize=13;align=center;verticalAlign=middle;fontColor=#000000;html=1;container=0;" vertex="1" parent="BvFk9DYRYYywMg2uubC_-31">
          <mxGeometry width="40" height="40" as="geometry" />
        </mxCell>
        <mxCell id="BvFk9DYRYYywMg2uubC_-34" value="Page&lt;br&gt;Up&lt;br&gt;" style="text;whiteSpace=wrap;labelBackgroundColor=none;fontColor=#0000CC;fontSize=13;align=center;verticalAlign=middle;html=1;container=0;" vertex="1" parent="BvFk9DYRYYywMg2uubC_-31">
          <mxGeometry x="40" width="40" height="40" as="geometry" />
        </mxCell>
        <mxCell id="BvFk9DYRYYywMg2uubC_-35" value="Tab" style="text;whiteSpace=wrap;labelBackgroundColor=none;fontColor=#00CC00;fontSize=13;align=center;verticalAlign=middle;html=1;container=0;" vertex="1" parent="BvFk9DYRYYywMg2uubC_-31">
          <mxGeometry y="40" width="40" height="40" as="geometry" />
        </mxCell>
        <mxCell id="BvFk9DYRYYywMg2uubC_-36" value="Boot&lt;br&gt;loader&lt;br&gt;" style="text;whiteSpace=wrap;labelBackgroundColor=none;fontColor=#FF0000;fontSize=13;align=center;verticalAlign=middle;html=1;container=0;" vertex="1" parent="BvFk9DYRYYywMg2uubC_-31">
          <mxGeometry x="40" y="40" width="40" height="40" as="geometry" />
        </mxCell>
        <mxCell id="BvFk9DYRYYywMg2uubC_-37" value="" style="group" vertex="1" connectable="0" parent="1">
          <mxGeometry x="287" y="270" width="80" height="80" as="geometry" />
        </mxCell>
        <mxCell id="BvFk9DYRYYywMg2uubC_-38" value="" style="rounded=1;strokeWidth=2;fillWeight=4;hachureGap=8;hachureAngle=45;fillColor=none;sketch=1;fillStyle=dashed;movable=1;resizable=1;rotatable=1;deletable=1;editable=1;locked=0;connectable=1;labelBackgroundColor=none;labelBorderColor=none;fontColor=none;noLabel=1;html=1;container=0;" vertex="1" parent="BvFk9DYRYYywMg2uubC_-37">
          <mxGeometry width="80" height="80" as="geometry" />
        </mxCell>
        <mxCell id="BvFk9DYRYYywMg2uubC_-39" value="Tab" style="text;whiteSpace=wrap;labelBackgroundColor=none;fontSize=13;align=center;verticalAlign=middle;fontColor=#000000;html=1;container=0;" vertex="1" parent="BvFk9DYRYYywMg2uubC_-37">
          <mxGeometry width="40" height="40" as="geometry" />
        </mxCell>
        <mxCell id="BvFk9DYRYYywMg2uubC_-40" value="Page&lt;br&gt;Up&lt;br&gt;" style="text;whiteSpace=wrap;labelBackgroundColor=none;fontColor=#0000CC;fontSize=13;align=center;verticalAlign=middle;html=1;container=0;" vertex="1" parent="BvFk9DYRYYywMg2uubC_-37">
          <mxGeometry x="40" width="40" height="40" as="geometry" />
        </mxCell>
        <mxCell id="BvFk9DYRYYywMg2uubC_-41" value="Tab" style="text;whiteSpace=wrap;labelBackgroundColor=none;fontColor=#00CC00;fontSize=13;align=center;verticalAlign=middle;html=1;container=0;" vertex="1" parent="BvFk9DYRYYywMg2uubC_-37">
          <mxGeometry y="40" width="40" height="40" as="geometry" />
        </mxCell>
        <mxCell id="BvFk9DYRYYywMg2uubC_-42" value="Boot&lt;br&gt;loader&lt;br&gt;" style="text;whiteSpace=wrap;labelBackgroundColor=none;fontColor=#FF0000;fontSize=13;align=center;verticalAlign=middle;html=1;container=0;" vertex="1" parent="BvFk9DYRYYywMg2uubC_-37">
          <mxGeometry x="40" y="40" width="40" height="40" as="geometry" />
        </mxCell>
        <mxCell id="BvFk9DYRYYywMg2uubC_-43" value="" style="group" vertex="1" connectable="0" parent="1">
          <mxGeometry x="367" y="270" width="80" height="80" as="geometry" />
        </mxCell>
        <mxCell id="BvFk9DYRYYywMg2uubC_-44" value="" style="rounded=1;strokeWidth=2;fillWeight=4;hachureGap=8;hachureAngle=45;fillColor=none;sketch=1;fillStyle=dashed;movable=1;resizable=1;rotatable=1;deletable=1;editable=1;locked=0;connectable=1;labelBackgroundColor=none;labelBorderColor=none;fontColor=none;noLabel=1;html=1;container=0;" vertex="1" parent="BvFk9DYRYYywMg2uubC_-43">
          <mxGeometry width="80" height="80" as="geometry" />
        </mxCell>
        <mxCell id="BvFk9DYRYYywMg2uubC_-45" value="Tab" style="text;whiteSpace=wrap;labelBackgroundColor=none;fontSize=13;align=center;verticalAlign=middle;fontColor=#000000;html=1;container=0;" vertex="1" parent="BvFk9DYRYYywMg2uubC_-43">
          <mxGeometry width="40" height="40" as="geometry" />
        </mxCell>
        <mxCell id="BvFk9DYRYYywMg2uubC_-46" value="Page&lt;br&gt;Up&lt;br&gt;" style="text;whiteSpace=wrap;labelBackgroundColor=none;fontColor=#0000CC;fontSize=13;align=center;verticalAlign=middle;html=1;container=0;" vertex="1" parent="BvFk9DYRYYywMg2uubC_-43">
          <mxGeometry x="40" width="40" height="40" as="geometry" />
        </mxCell>
        <mxCell id="BvFk9DYRYYywMg2uubC_-47" value="Tab" style="text;whiteSpace=wrap;labelBackgroundColor=none;fontColor=#00CC00;fontSize=13;align=center;verticalAlign=middle;html=1;container=0;" vertex="1" parent="BvFk9DYRYYywMg2uubC_-43">
          <mxGeometry y="40" width="40" height="40" as="geometry" />
        </mxCell>
        <mxCell id="BvFk9DYRYYywMg2uubC_-48" value="Boot&lt;br&gt;loader&lt;br&gt;" style="text;whiteSpace=wrap;labelBackgroundColor=none;fontColor=#FF0000;fontSize=13;align=center;verticalAlign=middle;html=1;container=0;" vertex="1" parent="BvFk9DYRYYywMg2uubC_-43">
          <mxGeometry x="40" y="40" width="40" height="40" as="geometry" />
        </mxCell>
        <mxCell id="BvFk9DYRYYywMg2uubC_-49" value="" style="group" vertex="1" connectable="0" parent="1">
          <mxGeometry x="448" y="255" width="80" height="80" as="geometry" />
        </mxCell>
        <mxCell id="BvFk9DYRYYywMg2uubC_-50" value="" style="rounded=1;strokeWidth=2;fillWeight=4;hachureGap=8;hachureAngle=45;fillColor=none;sketch=1;fillStyle=dashed;movable=1;resizable=1;rotatable=1;deletable=1;editable=1;locked=0;connectable=1;labelBackgroundColor=none;labelBorderColor=none;fontColor=none;noLabel=1;html=1;container=0;" vertex="1" parent="BvFk9DYRYYywMg2uubC_-49">
          <mxGeometry width="80" height="80" as="geometry" />
        </mxCell>
        <mxCell id="BvFk9DYRYYywMg2uubC_-51" value="Tab" style="text;whiteSpace=wrap;labelBackgroundColor=none;fontSize=13;align=center;verticalAlign=middle;fontColor=#000000;html=1;container=0;" vertex="1" parent="BvFk9DYRYYywMg2uubC_-49">
          <mxGeometry width="40" height="40" as="geometry" />
        </mxCell>
        <mxCell id="BvFk9DYRYYywMg2uubC_-52" value="Page&lt;br&gt;Up&lt;br&gt;" style="text;whiteSpace=wrap;labelBackgroundColor=none;fontColor=#0000CC;fontSize=13;align=center;verticalAlign=middle;html=1;container=0;" vertex="1" parent="BvFk9DYRYYywMg2uubC_-49">
          <mxGeometry x="40" width="40" height="40" as="geometry" />
        </mxCell>
        <mxCell id="BvFk9DYRYYywMg2uubC_-53" value="Tab" style="text;whiteSpace=wrap;labelBackgroundColor=none;fontColor=#00CC00;fontSize=13;align=center;verticalAlign=middle;html=1;container=0;" vertex="1" parent="BvFk9DYRYYywMg2uubC_-49">
          <mxGeometry y="40" width="40" height="40" as="geometry" />
        </mxCell>
        <mxCell id="BvFk9DYRYYywMg2uubC_-54" value="Boot&lt;br&gt;loader&lt;br&gt;" style="text;whiteSpace=wrap;labelBackgroundColor=none;fontColor=#FF0000;fontSize=13;align=center;verticalAlign=middle;html=1;container=0;" vertex="1" parent="BvFk9DYRYYywMg2uubC_-49">
          <mxGeometry x="40" y="40" width="40" height="40" as="geometry" />
        </mxCell>
        <mxCell id="BvFk9DYRYYywMg2uubC_-55" value="" style="group" vertex="1" connectable="0" parent="1">
          <mxGeometry x="528" y="245" width="80" height="80" as="geometry" />
        </mxCell>
        <mxCell id="BvFk9DYRYYywMg2uubC_-56" value="" style="rounded=1;strokeWidth=2;fillWeight=4;hachureGap=8;hachureAngle=45;fillColor=none;sketch=1;fillStyle=dashed;movable=1;resizable=1;rotatable=1;deletable=1;editable=1;locked=0;connectable=1;labelBackgroundColor=none;labelBorderColor=none;fontColor=none;noLabel=1;html=1;container=0;" vertex="1" parent="BvFk9DYRYYywMg2uubC_-55">
          <mxGeometry width="80" height="80" as="geometry" />
        </mxCell>
        <mxCell id="BvFk9DYRYYywMg2uubC_-57" value="Tab" style="text;whiteSpace=wrap;labelBackgroundColor=none;fontSize=13;align=center;verticalAlign=middle;fontColor=#000000;html=1;container=0;" vertex="1" parent="BvFk9DYRYYywMg2uubC_-55">
          <mxGeometry width="40" height="40" as="geometry" />
        </mxCell>
        <mxCell id="BvFk9DYRYYywMg2uubC_-58" value="Page&lt;br&gt;Up&lt;br&gt;" style="text;whiteSpace=wrap;labelBackgroundColor=none;fontColor=#0000CC;fontSize=13;align=center;verticalAlign=middle;html=1;container=0;" vertex="1" parent="BvFk9DYRYYywMg2uubC_-55">
          <mxGeometry x="40" width="40" height="40" as="geometry" />
        </mxCell>
        <mxCell id="BvFk9DYRYYywMg2uubC_-59" value="Tab" style="text;whiteSpace=wrap;labelBackgroundColor=none;fontColor=#00CC00;fontSize=13;align=center;verticalAlign=middle;html=1;container=0;" vertex="1" parent="BvFk9DYRYYywMg2uubC_-55">
          <mxGeometry y="40" width="40" height="40" as="geometry" />
        </mxCell>
        <mxCell id="BvFk9DYRYYywMg2uubC_-60" value="Boot&lt;br&gt;loader&lt;br&gt;" style="text;whiteSpace=wrap;labelBackgroundColor=none;fontColor=#FF0000;fontSize=13;align=center;verticalAlign=middle;html=1;container=0;" vertex="1" parent="BvFk9DYRYYywMg2uubC_-55">
          <mxGeometry x="40" y="40" width="40" height="40" as="geometry" />
        </mxCell>
        <mxCell id="BvFk9DYRYYywMg2uubC_-61" value="" style="group" vertex="1" connectable="0" parent="1">
          <mxGeometry x="608" y="255" width="80" height="80" as="geometry" />
        </mxCell>
        <mxCell id="BvFk9DYRYYywMg2uubC_-62" value="" style="rounded=1;strokeWidth=2;fillWeight=4;hachureGap=8;hachureAngle=45;fillColor=none;sketch=1;fillStyle=dashed;movable=1;resizable=1;rotatable=1;deletable=1;editable=1;locked=0;connectable=1;labelBackgroundColor=none;labelBorderColor=none;fontColor=none;noLabel=1;html=1;container=0;" vertex="1" parent="BvFk9DYRYYywMg2uubC_-61">
          <mxGeometry width="80" height="80" as="geometry" />
        </mxCell>
        <mxCell id="BvFk9DYRYYywMg2uubC_-63" value="Tab" style="text;whiteSpace=wrap;labelBackgroundColor=none;fontSize=13;align=center;verticalAlign=middle;fontColor=#000000;html=1;container=0;" vertex="1" parent="BvFk9DYRYYywMg2uubC_-61">
          <mxGeometry width="40" height="40" as="geometry" />
        </mxCell>
        <mxCell id="BvFk9DYRYYywMg2uubC_-64" value="Page&lt;br&gt;Up&lt;br&gt;" style="text;whiteSpace=wrap;labelBackgroundColor=none;fontColor=#0000CC;fontSize=13;align=center;verticalAlign=middle;html=1;container=0;" vertex="1" parent="BvFk9DYRYYywMg2uubC_-61">
          <mxGeometry x="40" width="40" height="40" as="geometry" />
        </mxCell>
        <mxCell id="BvFk9DYRYYywMg2uubC_-65" value="Tab" style="text;whiteSpace=wrap;labelBackgroundColor=none;fontColor=#00CC00;fontSize=13;align=center;verticalAlign=middle;html=1;container=0;" vertex="1" parent="BvFk9DYRYYywMg2uubC_-61">
          <mxGeometry y="40" width="40" height="40" as="geometry" />
        </mxCell>
        <mxCell id="BvFk9DYRYYywMg2uubC_-66" value="Boot&lt;br&gt;loader&lt;br&gt;" style="text;whiteSpace=wrap;labelBackgroundColor=none;fontColor=#FF0000;fontSize=13;align=center;verticalAlign=middle;html=1;container=0;" vertex="1" parent="BvFk9DYRYYywMg2uubC_-61">
          <mxGeometry x="40" y="40" width="40" height="40" as="geometry" />
        </mxCell>
        <mxCell id="BvFk9DYRYYywMg2uubC_-67" value="" style="group" vertex="1" connectable="0" parent="1">
          <mxGeometry x="688" y="263" width="80" height="80" as="geometry" />
        </mxCell>
        <mxCell id="BvFk9DYRYYywMg2uubC_-68" value="" style="rounded=1;strokeWidth=2;fillWeight=4;hachureGap=8;hachureAngle=45;fillColor=none;sketch=1;fillStyle=dashed;movable=1;resizable=1;rotatable=1;deletable=1;editable=1;locked=0;connectable=1;labelBackgroundColor=none;labelBorderColor=none;fontColor=none;noLabel=1;html=1;container=0;" vertex="1" parent="BvFk9DYRYYywMg2uubC_-67">
          <mxGeometry width="80" height="80" as="geometry" />
        </mxCell>
        <mxCell id="BvFk9DYRYYywMg2uubC_-69" value="Tab" style="text;whiteSpace=wrap;labelBackgroundColor=none;fontSize=13;align=center;verticalAlign=middle;fontColor=#000000;html=1;container=0;" vertex="1" parent="BvFk9DYRYYywMg2uubC_-67">
          <mxGeometry width="40" height="40" as="geometry" />
        </mxCell>
        <mxCell id="BvFk9DYRYYywMg2uubC_-70" value="Page&lt;br&gt;Up&lt;br&gt;" style="text;whiteSpace=wrap;labelBackgroundColor=none;fontColor=#0000CC;fontSize=13;align=center;verticalAlign=middle;html=1;container=0;" vertex="1" parent="BvFk9DYRYYywMg2uubC_-67">
          <mxGeometry x="40" width="40" height="40" as="geometry" />
        </mxCell>
        <mxCell id="BvFk9DYRYYywMg2uubC_-71" value="Tab" style="text;whiteSpace=wrap;labelBackgroundColor=none;fontColor=#00CC00;fontSize=13;align=center;verticalAlign=middle;html=1;container=0;" vertex="1" parent="BvFk9DYRYYywMg2uubC_-67">
          <mxGeometry y="40" width="40" height="40" as="geometry" />
        </mxCell>
        <mxCell id="BvFk9DYRYYywMg2uubC_-72" value="Boot&lt;br&gt;loader&lt;br&gt;" style="text;whiteSpace=wrap;labelBackgroundColor=none;fontColor=#FF0000;fontSize=13;align=center;verticalAlign=middle;html=1;container=0;" vertex="1" parent="BvFk9DYRYYywMg2uubC_-67">
          <mxGeometry x="40" y="40" width="40" height="40" as="geometry" />
        </mxCell>
        <mxCell id="BvFk9DYRYYywMg2uubC_-73" value="" style="group" vertex="1" connectable="0" parent="1">
          <mxGeometry x="287" y="350" width="80" height="80" as="geometry" />
        </mxCell>
        <mxCell id="BvFk9DYRYYywMg2uubC_-74" value="" style="rounded=1;strokeWidth=2;fillWeight=4;hachureGap=8;hachureAngle=45;fillColor=none;sketch=1;fillStyle=dashed;movable=1;resizable=1;rotatable=1;deletable=1;editable=1;locked=0;connectable=1;labelBackgroundColor=none;labelBorderColor=none;fontColor=none;noLabel=1;html=1;container=0;" vertex="1" parent="BvFk9DYRYYywMg2uubC_-73">
          <mxGeometry width="80" height="80" as="geometry" />
        </mxCell>
        <mxCell id="BvFk9DYRYYywMg2uubC_-75" value="Tab" style="text;whiteSpace=wrap;labelBackgroundColor=none;fontSize=13;align=center;verticalAlign=middle;fontColor=#000000;html=1;container=0;" vertex="1" parent="BvFk9DYRYYywMg2uubC_-73">
          <mxGeometry width="40" height="40" as="geometry" />
        </mxCell>
        <mxCell id="BvFk9DYRYYywMg2uubC_-76" value="Page&lt;br&gt;Up&lt;br&gt;" style="text;whiteSpace=wrap;labelBackgroundColor=none;fontColor=#0000CC;fontSize=13;align=center;verticalAlign=middle;html=1;container=0;" vertex="1" parent="BvFk9DYRYYywMg2uubC_-73">
          <mxGeometry x="40" width="40" height="40" as="geometry" />
        </mxCell>
        <mxCell id="BvFk9DYRYYywMg2uubC_-77" value="Tab" style="text;whiteSpace=wrap;labelBackgroundColor=none;fontColor=#00CC00;fontSize=13;align=center;verticalAlign=middle;html=1;container=0;" vertex="1" parent="BvFk9DYRYYywMg2uubC_-73">
          <mxGeometry y="40" width="40" height="40" as="geometry" />
        </mxCell>
        <mxCell id="BvFk9DYRYYywMg2uubC_-78" value="Boot&lt;br&gt;loader&lt;br&gt;" style="text;whiteSpace=wrap;labelBackgroundColor=none;fontColor=#FF0000;fontSize=13;align=center;verticalAlign=middle;html=1;container=0;" vertex="1" parent="BvFk9DYRYYywMg2uubC_-73">
          <mxGeometry x="40" y="40" width="40" height="40" as="geometry" />
        </mxCell>
        <mxCell id="BvFk9DYRYYywMg2uubC_-79" value="" style="group" vertex="1" connectable="0" parent="1">
          <mxGeometry x="367" y="350" width="80" height="80" as="geometry" />
        </mxCell>
        <mxCell id="BvFk9DYRYYywMg2uubC_-80" value="" style="rounded=1;strokeWidth=2;fillWeight=4;hachureGap=8;hachureAngle=45;fillColor=none;sketch=1;fillStyle=dashed;movable=1;resizable=1;rotatable=1;deletable=1;editable=1;locked=0;connectable=1;labelBackgroundColor=none;labelBorderColor=none;fontColor=none;noLabel=1;html=1;container=0;" vertex="1" parent="BvFk9DYRYYywMg2uubC_-79">
          <mxGeometry width="80" height="80" as="geometry" />
        </mxCell>
        <mxCell id="BvFk9DYRYYywMg2uubC_-81" value="Tab" style="text;whiteSpace=wrap;labelBackgroundColor=none;fontSize=13;align=center;verticalAlign=middle;fontColor=#000000;html=1;container=0;" vertex="1" parent="BvFk9DYRYYywMg2uubC_-79">
          <mxGeometry width="40" height="40" as="geometry" />
        </mxCell>
        <mxCell id="BvFk9DYRYYywMg2uubC_-82" value="Page&lt;br&gt;Up&lt;br&gt;" style="text;whiteSpace=wrap;labelBackgroundColor=none;fontColor=#0000CC;fontSize=13;align=center;verticalAlign=middle;html=1;container=0;" vertex="1" parent="BvFk9DYRYYywMg2uubC_-79">
          <mxGeometry x="40" width="40" height="40" as="geometry" />
        </mxCell>
        <mxCell id="BvFk9DYRYYywMg2uubC_-83" value="Tab" style="text;whiteSpace=wrap;labelBackgroundColor=none;fontColor=#00CC00;fontSize=13;align=center;verticalAlign=middle;html=1;container=0;" vertex="1" parent="BvFk9DYRYYywMg2uubC_-79">
          <mxGeometry y="40" width="40" height="40" as="geometry" />
        </mxCell>
        <mxCell id="BvFk9DYRYYywMg2uubC_-84" value="Boot&lt;br&gt;loader&lt;br&gt;" style="text;whiteSpace=wrap;labelBackgroundColor=none;fontColor=#FF0000;fontSize=13;align=center;verticalAlign=middle;html=1;container=0;" vertex="1" parent="BvFk9DYRYYywMg2uubC_-79">
          <mxGeometry x="40" y="40" width="40" height="40" as="geometry" />
        </mxCell>
        <mxCell id="BvFk9DYRYYywMg2uubC_-85" value="" style="group" vertex="1" connectable="0" parent="1">
          <mxGeometry x="448" y="335" width="80" height="80" as="geometry" />
        </mxCell>
        <mxCell id="BvFk9DYRYYywMg2uubC_-86" value="" style="rounded=1;strokeWidth=2;fillWeight=4;hachureGap=8;hachureAngle=45;fillColor=none;sketch=1;fillStyle=dashed;movable=1;resizable=1;rotatable=1;deletable=1;editable=1;locked=0;connectable=1;labelBackgroundColor=none;labelBorderColor=none;fontColor=none;noLabel=1;html=1;container=0;" vertex="1" parent="BvFk9DYRYYywMg2uubC_-85">
          <mxGeometry width="80" height="80" as="geometry" />
        </mxCell>
        <mxCell id="BvFk9DYRYYywMg2uubC_-87" value="Tab" style="text;whiteSpace=wrap;labelBackgroundColor=none;fontSize=13;align=center;verticalAlign=middle;fontColor=#000000;html=1;container=0;" vertex="1" parent="BvFk9DYRYYywMg2uubC_-85">
          <mxGeometry width="40" height="40" as="geometry" />
        </mxCell>
        <mxCell id="BvFk9DYRYYywMg2uubC_-88" value="Page&lt;br&gt;Up&lt;br&gt;" style="text;whiteSpace=wrap;labelBackgroundColor=none;fontColor=#0000CC;fontSize=13;align=center;verticalAlign=middle;html=1;container=0;" vertex="1" parent="BvFk9DYRYYywMg2uubC_-85">
          <mxGeometry x="40" width="40" height="40" as="geometry" />
        </mxCell>
        <mxCell id="BvFk9DYRYYywMg2uubC_-89" value="Tab" style="text;whiteSpace=wrap;labelBackgroundColor=none;fontColor=#00CC00;fontSize=13;align=center;verticalAlign=middle;html=1;container=0;" vertex="1" parent="BvFk9DYRYYywMg2uubC_-85">
          <mxGeometry y="40" width="40" height="40" as="geometry" />
        </mxCell>
        <mxCell id="BvFk9DYRYYywMg2uubC_-90" value="Boot&lt;br&gt;loader&lt;br&gt;" style="text;whiteSpace=wrap;labelBackgroundColor=none;fontColor=#FF0000;fontSize=13;align=center;verticalAlign=middle;html=1;container=0;" vertex="1" parent="BvFk9DYRYYywMg2uubC_-85">
          <mxGeometry x="40" y="40" width="40" height="40" as="geometry" />
        </mxCell>
        <mxCell id="BvFk9DYRYYywMg2uubC_-91" value="" style="group" vertex="1" connectable="0" parent="1">
          <mxGeometry x="528" y="325" width="80" height="80" as="geometry" />
        </mxCell>
        <mxCell id="BvFk9DYRYYywMg2uubC_-92" value="" style="rounded=1;strokeWidth=2;fillWeight=4;hachureGap=8;hachureAngle=45;fillColor=none;sketch=1;fillStyle=dashed;movable=1;resizable=1;rotatable=1;deletable=1;editable=1;locked=0;connectable=1;labelBackgroundColor=none;labelBorderColor=none;fontColor=none;noLabel=1;html=1;container=0;" vertex="1" parent="BvFk9DYRYYywMg2uubC_-91">
          <mxGeometry width="80" height="80" as="geometry" />
        </mxCell>
        <mxCell id="BvFk9DYRYYywMg2uubC_-93" value="Tab" style="text;whiteSpace=wrap;labelBackgroundColor=none;fontSize=13;align=center;verticalAlign=middle;fontColor=#000000;html=1;container=0;" vertex="1" parent="BvFk9DYRYYywMg2uubC_-91">
          <mxGeometry width="40" height="40" as="geometry" />
        </mxCell>
        <mxCell id="BvFk9DYRYYywMg2uubC_-94" value="Page&lt;br&gt;Up&lt;br&gt;" style="text;whiteSpace=wrap;labelBackgroundColor=none;fontColor=#0000CC;fontSize=13;align=center;verticalAlign=middle;html=1;container=0;" vertex="1" parent="BvFk9DYRYYywMg2uubC_-91">
          <mxGeometry x="40" width="40" height="40" as="geometry" />
        </mxCell>
        <mxCell id="BvFk9DYRYYywMg2uubC_-95" value="Tab" style="text;whiteSpace=wrap;labelBackgroundColor=none;fontColor=#00CC00;fontSize=13;align=center;verticalAlign=middle;html=1;container=0;" vertex="1" parent="BvFk9DYRYYywMg2uubC_-91">
          <mxGeometry y="40" width="40" height="40" as="geometry" />
        </mxCell>
        <mxCell id="BvFk9DYRYYywMg2uubC_-96" value="Boot&lt;br&gt;loader&lt;br&gt;" style="text;whiteSpace=wrap;labelBackgroundColor=none;fontColor=#FF0000;fontSize=13;align=center;verticalAlign=middle;html=1;container=0;" vertex="1" parent="BvFk9DYRYYywMg2uubC_-91">
          <mxGeometry x="40" y="40" width="40" height="40" as="geometry" />
        </mxCell>
        <mxCell id="BvFk9DYRYYywMg2uubC_-97" value="" style="group" vertex="1" connectable="0" parent="1">
          <mxGeometry x="608" y="335" width="80" height="80" as="geometry" />
        </mxCell>
        <mxCell id="BvFk9DYRYYywMg2uubC_-98" value="" style="rounded=1;strokeWidth=2;fillWeight=4;hachureGap=8;hachureAngle=45;fillColor=none;sketch=1;fillStyle=dashed;movable=1;resizable=1;rotatable=1;deletable=1;editable=1;locked=0;connectable=1;labelBackgroundColor=none;labelBorderColor=none;fontColor=none;noLabel=1;html=1;container=0;" vertex="1" parent="BvFk9DYRYYywMg2uubC_-97">
          <mxGeometry width="80" height="80" as="geometry" />
        </mxCell>
        <mxCell id="BvFk9DYRYYywMg2uubC_-99" value="Tab" style="text;whiteSpace=wrap;labelBackgroundColor=none;fontSize=13;align=center;verticalAlign=middle;fontColor=#000000;html=1;container=0;" vertex="1" parent="BvFk9DYRYYywMg2uubC_-97">
          <mxGeometry width="40" height="40" as="geometry" />
        </mxCell>
        <mxCell id="BvFk9DYRYYywMg2uubC_-100" value="Page&lt;br&gt;Up&lt;br&gt;" style="text;whiteSpace=wrap;labelBackgroundColor=none;fontColor=#0000CC;fontSize=13;align=center;verticalAlign=middle;html=1;container=0;" vertex="1" parent="BvFk9DYRYYywMg2uubC_-97">
          <mxGeometry x="40" width="40" height="40" as="geometry" />
        </mxCell>
        <mxCell id="BvFk9DYRYYywMg2uubC_-101" value="Tab" style="text;whiteSpace=wrap;labelBackgroundColor=none;fontColor=#00CC00;fontSize=13;align=center;verticalAlign=middle;html=1;container=0;" vertex="1" parent="BvFk9DYRYYywMg2uubC_-97">
          <mxGeometry y="40" width="40" height="40" as="geometry" />
        </mxCell>
        <mxCell id="BvFk9DYRYYywMg2uubC_-102" value="Boot&lt;br&gt;loader&lt;br&gt;" style="text;whiteSpace=wrap;labelBackgroundColor=none;fontColor=#FF0000;fontSize=13;align=center;verticalAlign=middle;html=1;container=0;" vertex="1" parent="BvFk9DYRYYywMg2uubC_-97">
          <mxGeometry x="40" y="40" width="40" height="40" as="geometry" />
        </mxCell>
        <mxCell id="BvFk9DYRYYywMg2uubC_-103" value="" style="group" vertex="1" connectable="0" parent="1">
          <mxGeometry x="688" y="343" width="80" height="80" as="geometry" />
        </mxCell>
        <mxCell id="BvFk9DYRYYywMg2uubC_-104" value="" style="rounded=1;strokeWidth=2;fillWeight=4;hachureGap=8;hachureAngle=45;fillColor=none;sketch=1;fillStyle=dashed;movable=1;resizable=1;rotatable=1;deletable=1;editable=1;locked=0;connectable=1;labelBackgroundColor=none;labelBorderColor=none;fontColor=none;noLabel=1;html=1;container=0;" vertex="1" parent="BvFk9DYRYYywMg2uubC_-103">
          <mxGeometry width="80" height="80" as="geometry" />
        </mxCell>
        <mxCell id="BvFk9DYRYYywMg2uubC_-105" value="Tab" style="text;whiteSpace=wrap;labelBackgroundColor=none;fontSize=13;align=center;verticalAlign=middle;fontColor=#000000;html=1;container=0;" vertex="1" parent="BvFk9DYRYYywMg2uubC_-103">
          <mxGeometry width="40" height="40" as="geometry" />
        </mxCell>
        <mxCell id="BvFk9DYRYYywMg2uubC_-106" value="Page&lt;br&gt;Up&lt;br&gt;" style="text;whiteSpace=wrap;labelBackgroundColor=none;fontColor=#0000CC;fontSize=13;align=center;verticalAlign=middle;html=1;container=0;" vertex="1" parent="BvFk9DYRYYywMg2uubC_-103">
          <mxGeometry x="40" width="40" height="40" as="geometry" />
        </mxCell>
        <mxCell id="BvFk9DYRYYywMg2uubC_-107" value="Tab" style="text;whiteSpace=wrap;labelBackgroundColor=none;fontColor=#00CC00;fontSize=13;align=center;verticalAlign=middle;html=1;container=0;" vertex="1" parent="BvFk9DYRYYywMg2uubC_-103">
          <mxGeometry y="40" width="40" height="40" as="geometry" />
        </mxCell>
        <mxCell id="BvFk9DYRYYywMg2uubC_-108" value="Boot&lt;br&gt;loader&lt;br&gt;" style="text;whiteSpace=wrap;labelBackgroundColor=none;fontColor=#FF0000;fontSize=13;align=center;verticalAlign=middle;html=1;container=0;" vertex="1" parent="BvFk9DYRYYywMg2uubC_-103">
          <mxGeometry x="40" y="40" width="40" height="40" as="geometry" />
        </mxCell>
        <mxCell id="BvFk9DYRYYywMg2uubC_-109" value="" style="group" vertex="1" connectable="0" parent="1">
          <mxGeometry x="568" y="430" width="80" height="80" as="geometry" />
        </mxCell>
        <mxCell id="BvFk9DYRYYywMg2uubC_-110" value="" style="rounded=1;strokeWidth=2;fillWeight=4;hachureGap=8;hachureAngle=45;fillColor=none;sketch=1;fillStyle=dashed;movable=1;resizable=1;rotatable=1;deletable=1;editable=1;locked=0;connectable=1;labelBackgroundColor=none;labelBorderColor=none;fontColor=none;noLabel=1;html=1;container=0;" vertex="1" parent="BvFk9DYRYYywMg2uubC_-109">
          <mxGeometry width="80" height="80" as="geometry" />
        </mxCell>
        <mxCell id="BvFk9DYRYYywMg2uubC_-111" value="Tab" style="text;whiteSpace=wrap;labelBackgroundColor=none;fontSize=13;align=center;verticalAlign=middle;fontColor=#000000;html=1;container=0;" vertex="1" parent="BvFk9DYRYYywMg2uubC_-109">
          <mxGeometry width="40" height="40" as="geometry" />
        </mxCell>
        <mxCell id="BvFk9DYRYYywMg2uubC_-112" value="Page&lt;br&gt;Up&lt;br&gt;" style="text;whiteSpace=wrap;labelBackgroundColor=none;fontColor=#0000CC;fontSize=13;align=center;verticalAlign=middle;html=1;container=0;" vertex="1" parent="BvFk9DYRYYywMg2uubC_-109">
          <mxGeometry x="40" width="40" height="40" as="geometry" />
        </mxCell>
        <mxCell id="BvFk9DYRYYywMg2uubC_-113" value="Tab" style="text;whiteSpace=wrap;labelBackgroundColor=none;fontColor=#00CC00;fontSize=13;align=center;verticalAlign=middle;html=1;container=0;" vertex="1" parent="BvFk9DYRYYywMg2uubC_-109">
          <mxGeometry y="40" width="40" height="40" as="geometry" />
        </mxCell>
        <mxCell id="BvFk9DYRYYywMg2uubC_-114" value="Boot&lt;br&gt;loader&lt;br&gt;" style="text;whiteSpace=wrap;labelBackgroundColor=none;fontColor=#FF0000;fontSize=13;align=center;verticalAlign=middle;html=1;container=0;" vertex="1" parent="BvFk9DYRYYywMg2uubC_-109">
          <mxGeometry x="40" y="40" width="40" height="40" as="geometry" />
        </mxCell>
        <mxCell id="BvFk9DYRYYywMg2uubC_-115" value="" style="group;rotation=15;" vertex="1" connectable="0" parent="1">
          <mxGeometry x="659" y="440" width="80" height="80" as="geometry" />
        </mxCell>
        <mxCell id="BvFk9DYRYYywMg2uubC_-116" value="" style="rounded=1;strokeWidth=2;fillWeight=4;hachureGap=8;hachureAngle=45;fillColor=none;sketch=1;fillStyle=dashed;movable=1;resizable=1;rotatable=1;deletable=1;editable=1;locked=0;connectable=1;labelBackgroundColor=none;labelBorderColor=none;fontColor=none;noLabel=1;html=1;container=0;rotation=15;" vertex="1" parent="BvFk9DYRYYywMg2uubC_-115">
          <mxGeometry width="80" height="80" as="geometry" />
        </mxCell>
        <mxCell id="BvFk9DYRYYywMg2uubC_-117" value="Tab" style="text;whiteSpace=wrap;labelBackgroundColor=none;fontSize=13;align=center;verticalAlign=middle;fontColor=#000000;html=1;container=0;rotation=15;" vertex="1" parent="BvFk9DYRYYywMg2uubC_-115">
          <mxGeometry x="6" y="-4" width="40" height="40" as="geometry" />
        </mxCell>
        <mxCell id="BvFk9DYRYYywMg2uubC_-118" value="Page&lt;br&gt;Up&lt;br&gt;" style="text;whiteSpace=wrap;labelBackgroundColor=none;fontColor=#0000CC;fontSize=13;align=center;verticalAlign=middle;html=1;container=0;rotation=15;" vertex="1" parent="BvFk9DYRYYywMg2uubC_-115">
          <mxGeometry x="44" y="6" width="40" height="40" as="geometry" />
        </mxCell>
        <mxCell id="BvFk9DYRYYywMg2uubC_-119" value="Tab" style="text;whiteSpace=wrap;labelBackgroundColor=none;fontColor=#00CC00;fontSize=13;align=center;verticalAlign=middle;html=1;container=0;rotation=15;" vertex="1" parent="BvFk9DYRYYywMg2uubC_-115">
          <mxGeometry x="-4" y="34" width="40" height="40" as="geometry" />
        </mxCell>
        <mxCell id="BvFk9DYRYYywMg2uubC_-120" value="Boot&lt;br&gt;loader&lt;br&gt;" style="text;whiteSpace=wrap;labelBackgroundColor=none;fontColor=#FF0000;fontSize=13;align=center;verticalAlign=middle;html=1;container=0;rotation=15;" vertex="1" parent="BvFk9DYRYYywMg2uubC_-115">
          <mxGeometry x="34" y="44" width="40" height="40" as="geometry" />
        </mxCell>
        <mxCell id="BvFk9DYRYYywMg2uubC_-121" value="" style="group;rotation=25;" vertex="1" connectable="0" parent="1">
          <mxGeometry x="743.59" y="447.34000000000015" width="80" height="100" as="geometry" />
        </mxCell>
        <mxCell id="BvFk9DYRYYywMg2uubC_-122" value="" style="rounded=1;strokeWidth=2;fillWeight=4;hachureGap=8;hachureAngle=45;fillColor=none;sketch=1;fillStyle=dashed;movable=1;resizable=1;rotatable=1;deletable=1;editable=1;locked=0;connectable=1;labelBackgroundColor=none;labelBorderColor=none;fontColor=none;noLabel=1;html=1;container=0;rotation=25;" vertex="1" parent="BvFk9DYRYYywMg2uubC_-121">
          <mxGeometry x="3" y="1" width="80" height="100" as="geometry" />
        </mxCell>
        <mxCell id="BvFk9DYRYYywMg2uubC_-123" value="Tab" style="text;whiteSpace=wrap;labelBackgroundColor=none;fontSize=13;align=center;verticalAlign=middle;fontColor=#000000;html=1;container=0;rotation=25;" vertex="1" parent="BvFk9DYRYYywMg2uubC_-121">
          <mxGeometry x="14" y="-6" width="40" height="50" as="geometry" />
        </mxCell>
        <mxCell id="BvFk9DYRYYywMg2uubC_-124" value="Page&lt;br&gt;Up&lt;br&gt;" style="text;whiteSpace=wrap;labelBackgroundColor=none;fontColor=#0000CC;fontSize=13;align=center;verticalAlign=middle;html=1;container=0;rotation=25;" vertex="1" parent="BvFk9DYRYYywMg2uubC_-121">
          <mxGeometry x="50" y="12" width="40" height="50" as="geometry" />
        </mxCell>
        <mxCell id="BvFk9DYRYYywMg2uubC_-125" value="Tab" style="text;whiteSpace=wrap;labelBackgroundColor=none;fontColor=#00CC00;fontSize=13;align=center;verticalAlign=middle;html=1;container=0;rotation=25;" vertex="1" parent="BvFk9DYRYYywMg2uubC_-121">
          <mxGeometry x="-4" y="38" width="40" height="50" as="geometry" />
        </mxCell>
        <mxCell id="BvFk9DYRYYywMg2uubC_-126" value="Boot&lt;br&gt;loader&lt;br&gt;" style="text;whiteSpace=wrap;labelBackgroundColor=none;fontColor=#FF0000;fontSize=13;align=center;verticalAlign=middle;html=1;container=0;rotation=25;" vertex="1" parent="BvFk9DYRYYywMg2uubC_-121">
          <mxGeometry x="32" y="57" width="40" height="50" as="geometry" />
        </mxCell>
        <mxCell id="BvFk9DYRYYywMg2uubC_-127" value="" style="group" vertex="1" connectable="0" parent="1">
          <mxGeometry x="1322.9732245685009" y="190" width="80" height="80" as="geometry" />
        </mxCell>
        <mxCell id="BvFk9DYRYYywMg2uubC_-128" value="" style="rounded=1;strokeWidth=2;fillWeight=4;hachureGap=8;hachureAngle=45;fillColor=none;sketch=1;fillStyle=dashed;movable=1;resizable=1;rotatable=1;deletable=1;editable=1;locked=0;connectable=1;labelBackgroundColor=none;labelBorderColor=none;fontColor=none;noLabel=1;html=1;container=0;" vertex="1" parent="BvFk9DYRYYywMg2uubC_-127">
          <mxGeometry width="80" height="80" as="geometry" />
        </mxCell>
        <mxCell id="BvFk9DYRYYywMg2uubC_-129" value="Tab" style="text;whiteSpace=wrap;labelBackgroundColor=none;fontSize=13;align=center;verticalAlign=middle;fontColor=#000000;html=1;container=0;" vertex="1" parent="BvFk9DYRYYywMg2uubC_-127">
          <mxGeometry width="40" height="40" as="geometry" />
        </mxCell>
        <mxCell id="BvFk9DYRYYywMg2uubC_-130" value="Page&lt;br&gt;Up&lt;br&gt;" style="text;whiteSpace=wrap;labelBackgroundColor=none;fontColor=#0000CC;fontSize=13;align=center;verticalAlign=middle;html=1;container=0;" vertex="1" parent="BvFk9DYRYYywMg2uubC_-127">
          <mxGeometry x="40" width="40" height="40" as="geometry" />
        </mxCell>
        <mxCell id="BvFk9DYRYYywMg2uubC_-131" value="Tab" style="text;whiteSpace=wrap;labelBackgroundColor=none;fontColor=#00CC00;fontSize=13;align=center;verticalAlign=middle;html=1;container=0;" vertex="1" parent="BvFk9DYRYYywMg2uubC_-127">
          <mxGeometry y="40" width="40" height="40" as="geometry" />
        </mxCell>
        <mxCell id="BvFk9DYRYYywMg2uubC_-132" value="Boot&lt;br&gt;loader&lt;br&gt;" style="text;whiteSpace=wrap;labelBackgroundColor=none;fontColor=#FF0000;fontSize=13;align=center;verticalAlign=middle;html=1;container=0;" vertex="1" parent="BvFk9DYRYYywMg2uubC_-127">
          <mxGeometry x="40" y="40" width="40" height="40" as="geometry" />
        </mxCell>
        <mxCell id="BvFk9DYRYYywMg2uubC_-133" value="" style="group" vertex="1" connectable="0" parent="1">
          <mxGeometry x="1242.9732245685009" y="190" width="80" height="80" as="geometry" />
        </mxCell>
        <mxCell id="BvFk9DYRYYywMg2uubC_-134" value="" style="rounded=1;strokeWidth=2;fillWeight=4;hachureGap=8;hachureAngle=45;fillColor=none;sketch=1;fillStyle=dashed;movable=1;resizable=1;rotatable=1;deletable=1;editable=1;locked=0;connectable=1;labelBackgroundColor=none;labelBorderColor=none;fontColor=none;noLabel=1;html=1;container=0;" vertex="1" parent="BvFk9DYRYYywMg2uubC_-133">
          <mxGeometry width="80" height="80" as="geometry" />
        </mxCell>
        <mxCell id="BvFk9DYRYYywMg2uubC_-135" value="Tab" style="text;whiteSpace=wrap;labelBackgroundColor=none;fontSize=13;align=center;verticalAlign=middle;fontColor=#000000;html=1;container=0;" vertex="1" parent="BvFk9DYRYYywMg2uubC_-133">
          <mxGeometry width="40" height="40" as="geometry" />
        </mxCell>
        <mxCell id="BvFk9DYRYYywMg2uubC_-136" value="Page&lt;br&gt;Up&lt;br&gt;" style="text;whiteSpace=wrap;labelBackgroundColor=none;fontColor=#0000CC;fontSize=13;align=center;verticalAlign=middle;html=1;container=0;" vertex="1" parent="BvFk9DYRYYywMg2uubC_-133">
          <mxGeometry x="40" width="40" height="40" as="geometry" />
        </mxCell>
        <mxCell id="BvFk9DYRYYywMg2uubC_-137" value="Tab" style="text;whiteSpace=wrap;labelBackgroundColor=none;fontColor=#00CC00;fontSize=13;align=center;verticalAlign=middle;html=1;container=0;" vertex="1" parent="BvFk9DYRYYywMg2uubC_-133">
          <mxGeometry y="40" width="40" height="40" as="geometry" />
        </mxCell>
        <mxCell id="BvFk9DYRYYywMg2uubC_-138" value="Boot&lt;br&gt;loader&lt;br&gt;" style="text;whiteSpace=wrap;labelBackgroundColor=none;fontColor=#FF0000;fontSize=13;align=center;verticalAlign=middle;html=1;container=0;" vertex="1" parent="BvFk9DYRYYywMg2uubC_-133">
          <mxGeometry x="40" y="40" width="40" height="40" as="geometry" />
        </mxCell>
        <mxCell id="BvFk9DYRYYywMg2uubC_-139" value="" style="group" vertex="1" connectable="0" parent="1">
          <mxGeometry x="1161.9732245685009" y="175" width="80" height="80" as="geometry" />
        </mxCell>
        <mxCell id="BvFk9DYRYYywMg2uubC_-140" value="" style="rounded=1;strokeWidth=2;fillWeight=4;hachureGap=8;hachureAngle=45;fillColor=none;sketch=1;fillStyle=dashed;movable=1;resizable=1;rotatable=1;deletable=1;editable=1;locked=0;connectable=1;labelBackgroundColor=none;labelBorderColor=none;fontColor=none;noLabel=1;html=1;container=0;" vertex="1" parent="BvFk9DYRYYywMg2uubC_-139">
          <mxGeometry width="80" height="80" as="geometry" />
        </mxCell>
        <mxCell id="BvFk9DYRYYywMg2uubC_-141" value="Tab" style="text;whiteSpace=wrap;labelBackgroundColor=none;fontSize=13;align=center;verticalAlign=middle;fontColor=#000000;html=1;container=0;" vertex="1" parent="BvFk9DYRYYywMg2uubC_-139">
          <mxGeometry width="40" height="40" as="geometry" />
        </mxCell>
        <mxCell id="BvFk9DYRYYywMg2uubC_-142" value="Page&lt;br&gt;Up&lt;br&gt;" style="text;whiteSpace=wrap;labelBackgroundColor=none;fontColor=#0000CC;fontSize=13;align=center;verticalAlign=middle;html=1;container=0;" vertex="1" parent="BvFk9DYRYYywMg2uubC_-139">
          <mxGeometry x="40" width="40" height="40" as="geometry" />
        </mxCell>
        <mxCell id="BvFk9DYRYYywMg2uubC_-143" value="Tab" style="text;whiteSpace=wrap;labelBackgroundColor=none;fontColor=#00CC00;fontSize=13;align=center;verticalAlign=middle;html=1;container=0;" vertex="1" parent="BvFk9DYRYYywMg2uubC_-139">
          <mxGeometry y="40" width="40" height="40" as="geometry" />
        </mxCell>
        <mxCell id="BvFk9DYRYYywMg2uubC_-144" value="Boot&lt;br&gt;loader&lt;br&gt;" style="text;whiteSpace=wrap;labelBackgroundColor=none;fontColor=#FF0000;fontSize=13;align=center;verticalAlign=middle;html=1;container=0;" vertex="1" parent="BvFk9DYRYYywMg2uubC_-139">
          <mxGeometry x="40" y="40" width="40" height="40" as="geometry" />
        </mxCell>
        <mxCell id="BvFk9DYRYYywMg2uubC_-145" value="" style="group" vertex="1" connectable="0" parent="1">
          <mxGeometry x="1081.9732245685009" y="165" width="80" height="80" as="geometry" />
        </mxCell>
        <mxCell id="BvFk9DYRYYywMg2uubC_-146" value="" style="rounded=1;strokeWidth=2;fillWeight=4;hachureGap=8;hachureAngle=45;fillColor=none;sketch=1;fillStyle=dashed;movable=1;resizable=1;rotatable=1;deletable=1;editable=1;locked=0;connectable=1;labelBackgroundColor=none;labelBorderColor=none;fontColor=none;noLabel=1;html=1;container=0;" vertex="1" parent="BvFk9DYRYYywMg2uubC_-145">
          <mxGeometry width="80" height="80" as="geometry" />
        </mxCell>
        <mxCell id="BvFk9DYRYYywMg2uubC_-147" value="Tab" style="text;whiteSpace=wrap;labelBackgroundColor=none;fontSize=13;align=center;verticalAlign=middle;fontColor=#000000;html=1;container=0;" vertex="1" parent="BvFk9DYRYYywMg2uubC_-145">
          <mxGeometry width="40" height="40" as="geometry" />
        </mxCell>
        <mxCell id="BvFk9DYRYYywMg2uubC_-148" value="Page&lt;br&gt;Up&lt;br&gt;" style="text;whiteSpace=wrap;labelBackgroundColor=none;fontColor=#0000CC;fontSize=13;align=center;verticalAlign=middle;html=1;container=0;" vertex="1" parent="BvFk9DYRYYywMg2uubC_-145">
          <mxGeometry x="40" width="40" height="40" as="geometry" />
        </mxCell>
        <mxCell id="BvFk9DYRYYywMg2uubC_-149" value="Tab" style="text;whiteSpace=wrap;labelBackgroundColor=none;fontColor=#00CC00;fontSize=13;align=center;verticalAlign=middle;html=1;container=0;" vertex="1" parent="BvFk9DYRYYywMg2uubC_-145">
          <mxGeometry y="40" width="40" height="40" as="geometry" />
        </mxCell>
        <mxCell id="BvFk9DYRYYywMg2uubC_-150" value="Boot&lt;br&gt;loader&lt;br&gt;" style="text;whiteSpace=wrap;labelBackgroundColor=none;fontColor=#FF0000;fontSize=13;align=center;verticalAlign=middle;html=1;container=0;" vertex="1" parent="BvFk9DYRYYywMg2uubC_-145">
          <mxGeometry x="40" y="40" width="40" height="40" as="geometry" />
        </mxCell>
        <mxCell id="BvFk9DYRYYywMg2uubC_-151" value="" style="group" vertex="1" connectable="0" parent="1">
          <mxGeometry x="1001.9732245685009" y="175" width="80" height="80" as="geometry" />
        </mxCell>
        <mxCell id="BvFk9DYRYYywMg2uubC_-152" value="" style="rounded=1;strokeWidth=2;fillWeight=4;hachureGap=8;hachureAngle=45;fillColor=none;sketch=1;fillStyle=dashed;movable=1;resizable=1;rotatable=1;deletable=1;editable=1;locked=0;connectable=1;labelBackgroundColor=none;labelBorderColor=none;fontColor=none;noLabel=1;html=1;container=0;" vertex="1" parent="BvFk9DYRYYywMg2uubC_-151">
          <mxGeometry width="80" height="80" as="geometry" />
        </mxCell>
        <mxCell id="BvFk9DYRYYywMg2uubC_-153" value="Tab" style="text;whiteSpace=wrap;labelBackgroundColor=none;fontSize=13;align=center;verticalAlign=middle;fontColor=#000000;html=1;container=0;" vertex="1" parent="BvFk9DYRYYywMg2uubC_-151">
          <mxGeometry width="40" height="40" as="geometry" />
        </mxCell>
        <mxCell id="BvFk9DYRYYywMg2uubC_-154" value="Page&lt;br&gt;Up&lt;br&gt;" style="text;whiteSpace=wrap;labelBackgroundColor=none;fontColor=#0000CC;fontSize=13;align=center;verticalAlign=middle;html=1;container=0;" vertex="1" parent="BvFk9DYRYYywMg2uubC_-151">
          <mxGeometry x="40" width="40" height="40" as="geometry" />
        </mxCell>
        <mxCell id="BvFk9DYRYYywMg2uubC_-155" value="Tab" style="text;whiteSpace=wrap;labelBackgroundColor=none;fontColor=#00CC00;fontSize=13;align=center;verticalAlign=middle;html=1;container=0;" vertex="1" parent="BvFk9DYRYYywMg2uubC_-151">
          <mxGeometry y="40" width="40" height="40" as="geometry" />
        </mxCell>
        <mxCell id="BvFk9DYRYYywMg2uubC_-156" value="Boot&lt;br&gt;loader&lt;br&gt;" style="text;whiteSpace=wrap;labelBackgroundColor=none;fontColor=#FF0000;fontSize=13;align=center;verticalAlign=middle;html=1;container=0;" vertex="1" parent="BvFk9DYRYYywMg2uubC_-151">
          <mxGeometry x="40" y="40" width="40" height="40" as="geometry" />
        </mxCell>
        <mxCell id="BvFk9DYRYYywMg2uubC_-157" value="" style="group" vertex="1" connectable="0" parent="1">
          <mxGeometry x="921.9732245685009" y="183" width="80" height="80" as="geometry" />
        </mxCell>
        <mxCell id="BvFk9DYRYYywMg2uubC_-158" value="" style="rounded=1;strokeWidth=2;fillWeight=4;hachureGap=8;hachureAngle=45;fillColor=none;sketch=1;fillStyle=dashed;movable=1;resizable=1;rotatable=1;deletable=1;editable=1;locked=0;connectable=1;labelBackgroundColor=none;labelBorderColor=none;fontColor=none;noLabel=1;html=1;container=0;" vertex="1" parent="BvFk9DYRYYywMg2uubC_-157">
          <mxGeometry width="80" height="80" as="geometry" />
        </mxCell>
        <mxCell id="BvFk9DYRYYywMg2uubC_-159" value="Tab" style="text;whiteSpace=wrap;labelBackgroundColor=none;fontSize=13;align=center;verticalAlign=middle;fontColor=#000000;html=1;container=0;" vertex="1" parent="BvFk9DYRYYywMg2uubC_-157">
          <mxGeometry width="40" height="40" as="geometry" />
        </mxCell>
        <mxCell id="BvFk9DYRYYywMg2uubC_-160" value="Page&lt;br&gt;Up&lt;br&gt;" style="text;whiteSpace=wrap;labelBackgroundColor=none;fontColor=#0000CC;fontSize=13;align=center;verticalAlign=middle;html=1;container=0;" vertex="1" parent="BvFk9DYRYYywMg2uubC_-157">
          <mxGeometry x="40" width="40" height="40" as="geometry" />
        </mxCell>
        <mxCell id="BvFk9DYRYYywMg2uubC_-161" value="Tab" style="text;whiteSpace=wrap;labelBackgroundColor=none;fontColor=#00CC00;fontSize=13;align=center;verticalAlign=middle;html=1;container=0;" vertex="1" parent="BvFk9DYRYYywMg2uubC_-157">
          <mxGeometry y="40" width="40" height="40" as="geometry" />
        </mxCell>
        <mxCell id="BvFk9DYRYYywMg2uubC_-162" value="Boot&lt;br&gt;loader&lt;br&gt;" style="text;whiteSpace=wrap;labelBackgroundColor=none;fontColor=#FF0000;fontSize=13;align=center;verticalAlign=middle;html=1;container=0;" vertex="1" parent="BvFk9DYRYYywMg2uubC_-157">
          <mxGeometry x="40" y="40" width="40" height="40" as="geometry" />
        </mxCell>
        <mxCell id="BvFk9DYRYYywMg2uubC_-163" value="" style="group" vertex="1" connectable="0" parent="1">
          <mxGeometry x="1322.9732245685009" y="270" width="80" height="80" as="geometry" />
        </mxCell>
        <mxCell id="BvFk9DYRYYywMg2uubC_-164" value="" style="rounded=1;strokeWidth=2;fillWeight=4;hachureGap=8;hachureAngle=45;fillColor=none;sketch=1;fillStyle=dashed;movable=1;resizable=1;rotatable=1;deletable=1;editable=1;locked=0;connectable=1;labelBackgroundColor=none;labelBorderColor=none;fontColor=none;noLabel=1;html=1;container=0;" vertex="1" parent="BvFk9DYRYYywMg2uubC_-163">
          <mxGeometry width="80" height="80" as="geometry" />
        </mxCell>
        <mxCell id="BvFk9DYRYYywMg2uubC_-165" value="Tab" style="text;whiteSpace=wrap;labelBackgroundColor=none;fontSize=13;align=center;verticalAlign=middle;fontColor=#000000;html=1;container=0;" vertex="1" parent="BvFk9DYRYYywMg2uubC_-163">
          <mxGeometry width="40" height="40" as="geometry" />
        </mxCell>
        <mxCell id="BvFk9DYRYYywMg2uubC_-166" value="Page&lt;br&gt;Up&lt;br&gt;" style="text;whiteSpace=wrap;labelBackgroundColor=none;fontColor=#0000CC;fontSize=13;align=center;verticalAlign=middle;html=1;container=0;" vertex="1" parent="BvFk9DYRYYywMg2uubC_-163">
          <mxGeometry x="40" width="40" height="40" as="geometry" />
        </mxCell>
        <mxCell id="BvFk9DYRYYywMg2uubC_-167" value="Tab" style="text;whiteSpace=wrap;labelBackgroundColor=none;fontColor=#00CC00;fontSize=13;align=center;verticalAlign=middle;html=1;container=0;" vertex="1" parent="BvFk9DYRYYywMg2uubC_-163">
          <mxGeometry y="40" width="40" height="40" as="geometry" />
        </mxCell>
        <mxCell id="BvFk9DYRYYywMg2uubC_-168" value="Boot&lt;br&gt;loader&lt;br&gt;" style="text;whiteSpace=wrap;labelBackgroundColor=none;fontColor=#FF0000;fontSize=13;align=center;verticalAlign=middle;html=1;container=0;" vertex="1" parent="BvFk9DYRYYywMg2uubC_-163">
          <mxGeometry x="40" y="40" width="40" height="40" as="geometry" />
        </mxCell>
        <mxCell id="BvFk9DYRYYywMg2uubC_-169" value="" style="group" vertex="1" connectable="0" parent="1">
          <mxGeometry x="1242.9732245685009" y="270" width="80" height="80" as="geometry" />
        </mxCell>
        <mxCell id="BvFk9DYRYYywMg2uubC_-170" value="" style="rounded=1;strokeWidth=2;fillWeight=4;hachureGap=8;hachureAngle=45;fillColor=none;sketch=1;fillStyle=dashed;movable=1;resizable=1;rotatable=1;deletable=1;editable=1;locked=0;connectable=1;labelBackgroundColor=none;labelBorderColor=none;fontColor=none;noLabel=1;html=1;container=0;" vertex="1" parent="BvFk9DYRYYywMg2uubC_-169">
          <mxGeometry width="80" height="80" as="geometry" />
        </mxCell>
        <mxCell id="BvFk9DYRYYywMg2uubC_-171" value="Tab" style="text;whiteSpace=wrap;labelBackgroundColor=none;fontSize=13;align=center;verticalAlign=middle;fontColor=#000000;html=1;container=0;" vertex="1" parent="BvFk9DYRYYywMg2uubC_-169">
          <mxGeometry width="40" height="40" as="geometry" />
        </mxCell>
        <mxCell id="BvFk9DYRYYywMg2uubC_-172" value="Page&lt;br&gt;Up&lt;br&gt;" style="text;whiteSpace=wrap;labelBackgroundColor=none;fontColor=#0000CC;fontSize=13;align=center;verticalAlign=middle;html=1;container=0;" vertex="1" parent="BvFk9DYRYYywMg2uubC_-169">
          <mxGeometry x="40" width="40" height="40" as="geometry" />
        </mxCell>
        <mxCell id="BvFk9DYRYYywMg2uubC_-173" value="Tab" style="text;whiteSpace=wrap;labelBackgroundColor=none;fontColor=#00CC00;fontSize=13;align=center;verticalAlign=middle;html=1;container=0;" vertex="1" parent="BvFk9DYRYYywMg2uubC_-169">
          <mxGeometry y="40" width="40" height="40" as="geometry" />
        </mxCell>
        <mxCell id="BvFk9DYRYYywMg2uubC_-174" value="Boot&lt;br&gt;loader&lt;br&gt;" style="text;whiteSpace=wrap;labelBackgroundColor=none;fontColor=#FF0000;fontSize=13;align=center;verticalAlign=middle;html=1;container=0;" vertex="1" parent="BvFk9DYRYYywMg2uubC_-169">
          <mxGeometry x="40" y="40" width="40" height="40" as="geometry" />
        </mxCell>
        <mxCell id="BvFk9DYRYYywMg2uubC_-175" value="" style="group" vertex="1" connectable="0" parent="1">
          <mxGeometry x="1161.9732245685009" y="255" width="80" height="80" as="geometry" />
        </mxCell>
        <mxCell id="BvFk9DYRYYywMg2uubC_-176" value="" style="rounded=1;strokeWidth=2;fillWeight=4;hachureGap=8;hachureAngle=45;fillColor=none;sketch=1;fillStyle=dashed;movable=1;resizable=1;rotatable=1;deletable=1;editable=1;locked=0;connectable=1;labelBackgroundColor=none;labelBorderColor=none;fontColor=none;noLabel=1;html=1;container=0;" vertex="1" parent="BvFk9DYRYYywMg2uubC_-175">
          <mxGeometry width="80" height="80" as="geometry" />
        </mxCell>
        <mxCell id="BvFk9DYRYYywMg2uubC_-177" value="Tab" style="text;whiteSpace=wrap;labelBackgroundColor=none;fontSize=13;align=center;verticalAlign=middle;fontColor=#000000;html=1;container=0;" vertex="1" parent="BvFk9DYRYYywMg2uubC_-175">
          <mxGeometry width="40" height="40" as="geometry" />
        </mxCell>
        <mxCell id="BvFk9DYRYYywMg2uubC_-178" value="Page&lt;br&gt;Up&lt;br&gt;" style="text;whiteSpace=wrap;labelBackgroundColor=none;fontColor=#0000CC;fontSize=13;align=center;verticalAlign=middle;html=1;container=0;" vertex="1" parent="BvFk9DYRYYywMg2uubC_-175">
          <mxGeometry x="40" width="40" height="40" as="geometry" />
        </mxCell>
        <mxCell id="BvFk9DYRYYywMg2uubC_-179" value="Tab" style="text;whiteSpace=wrap;labelBackgroundColor=none;fontColor=#00CC00;fontSize=13;align=center;verticalAlign=middle;html=1;container=0;" vertex="1" parent="BvFk9DYRYYywMg2uubC_-175">
          <mxGeometry y="40" width="40" height="40" as="geometry" />
        </mxCell>
        <mxCell id="BvFk9DYRYYywMg2uubC_-180" value="Boot&lt;br&gt;loader&lt;br&gt;" style="text;whiteSpace=wrap;labelBackgroundColor=none;fontColor=#FF0000;fontSize=13;align=center;verticalAlign=middle;html=1;container=0;" vertex="1" parent="BvFk9DYRYYywMg2uubC_-175">
          <mxGeometry x="40" y="40" width="40" height="40" as="geometry" />
        </mxCell>
        <mxCell id="BvFk9DYRYYywMg2uubC_-181" value="" style="group" vertex="1" connectable="0" parent="1">
          <mxGeometry x="1081.9732245685009" y="245" width="80" height="80" as="geometry" />
        </mxCell>
        <mxCell id="BvFk9DYRYYywMg2uubC_-182" value="" style="rounded=1;strokeWidth=2;fillWeight=4;hachureGap=8;hachureAngle=45;fillColor=none;sketch=1;fillStyle=dashed;movable=1;resizable=1;rotatable=1;deletable=1;editable=1;locked=0;connectable=1;labelBackgroundColor=none;labelBorderColor=none;fontColor=none;noLabel=1;html=1;container=0;" vertex="1" parent="BvFk9DYRYYywMg2uubC_-181">
          <mxGeometry width="80" height="80" as="geometry" />
        </mxCell>
        <mxCell id="BvFk9DYRYYywMg2uubC_-183" value="Tab" style="text;whiteSpace=wrap;labelBackgroundColor=none;fontSize=13;align=center;verticalAlign=middle;fontColor=#000000;html=1;container=0;" vertex="1" parent="BvFk9DYRYYywMg2uubC_-181">
          <mxGeometry width="40" height="40" as="geometry" />
        </mxCell>
        <mxCell id="BvFk9DYRYYywMg2uubC_-184" value="Page&lt;br&gt;Up&lt;br&gt;" style="text;whiteSpace=wrap;labelBackgroundColor=none;fontColor=#0000CC;fontSize=13;align=center;verticalAlign=middle;html=1;container=0;" vertex="1" parent="BvFk9DYRYYywMg2uubC_-181">
          <mxGeometry x="40" width="40" height="40" as="geometry" />
        </mxCell>
        <mxCell id="BvFk9DYRYYywMg2uubC_-185" value="Tab" style="text;whiteSpace=wrap;labelBackgroundColor=none;fontColor=#00CC00;fontSize=13;align=center;verticalAlign=middle;html=1;container=0;" vertex="1" parent="BvFk9DYRYYywMg2uubC_-181">
          <mxGeometry y="40" width="40" height="40" as="geometry" />
        </mxCell>
        <mxCell id="BvFk9DYRYYywMg2uubC_-186" value="Boot&lt;br&gt;loader&lt;br&gt;" style="text;whiteSpace=wrap;labelBackgroundColor=none;fontColor=#FF0000;fontSize=13;align=center;verticalAlign=middle;html=1;container=0;" vertex="1" parent="BvFk9DYRYYywMg2uubC_-181">
          <mxGeometry x="40" y="40" width="40" height="40" as="geometry" />
        </mxCell>
        <mxCell id="BvFk9DYRYYywMg2uubC_-187" value="" style="group" vertex="1" connectable="0" parent="1">
          <mxGeometry x="1001.9732245685009" y="255" width="80" height="80" as="geometry" />
        </mxCell>
        <mxCell id="BvFk9DYRYYywMg2uubC_-188" value="" style="rounded=1;strokeWidth=2;fillWeight=4;hachureGap=8;hachureAngle=45;fillColor=none;sketch=1;fillStyle=dashed;movable=1;resizable=1;rotatable=1;deletable=1;editable=1;locked=0;connectable=1;labelBackgroundColor=none;labelBorderColor=none;fontColor=none;noLabel=1;html=1;container=0;" vertex="1" parent="BvFk9DYRYYywMg2uubC_-187">
          <mxGeometry width="80" height="80" as="geometry" />
        </mxCell>
        <mxCell id="BvFk9DYRYYywMg2uubC_-189" value="Tab" style="text;whiteSpace=wrap;labelBackgroundColor=none;fontSize=13;align=center;verticalAlign=middle;fontColor=#000000;html=1;container=0;" vertex="1" parent="BvFk9DYRYYywMg2uubC_-187">
          <mxGeometry width="40" height="40" as="geometry" />
        </mxCell>
        <mxCell id="BvFk9DYRYYywMg2uubC_-190" value="Page&lt;br&gt;Up&lt;br&gt;" style="text;whiteSpace=wrap;labelBackgroundColor=none;fontColor=#0000CC;fontSize=13;align=center;verticalAlign=middle;html=1;container=0;" vertex="1" parent="BvFk9DYRYYywMg2uubC_-187">
          <mxGeometry x="40" width="40" height="40" as="geometry" />
        </mxCell>
        <mxCell id="BvFk9DYRYYywMg2uubC_-191" value="Tab" style="text;whiteSpace=wrap;labelBackgroundColor=none;fontColor=#00CC00;fontSize=13;align=center;verticalAlign=middle;html=1;container=0;" vertex="1" parent="BvFk9DYRYYywMg2uubC_-187">
          <mxGeometry y="40" width="40" height="40" as="geometry" />
        </mxCell>
        <mxCell id="BvFk9DYRYYywMg2uubC_-192" value="Boot&lt;br&gt;loader&lt;br&gt;" style="text;whiteSpace=wrap;labelBackgroundColor=none;fontColor=#FF0000;fontSize=13;align=center;verticalAlign=middle;html=1;container=0;" vertex="1" parent="BvFk9DYRYYywMg2uubC_-187">
          <mxGeometry x="40" y="40" width="40" height="40" as="geometry" />
        </mxCell>
        <mxCell id="BvFk9DYRYYywMg2uubC_-193" value="" style="group" vertex="1" connectable="0" parent="1">
          <mxGeometry x="921.9732245685009" y="263" width="80" height="80" as="geometry" />
        </mxCell>
        <mxCell id="BvFk9DYRYYywMg2uubC_-194" value="" style="rounded=1;strokeWidth=2;fillWeight=4;hachureGap=8;hachureAngle=45;fillColor=none;sketch=1;fillStyle=dashed;movable=1;resizable=1;rotatable=1;deletable=1;editable=1;locked=0;connectable=1;labelBackgroundColor=none;labelBorderColor=none;fontColor=none;noLabel=1;html=1;container=0;" vertex="1" parent="BvFk9DYRYYywMg2uubC_-193">
          <mxGeometry width="80" height="80" as="geometry" />
        </mxCell>
        <mxCell id="BvFk9DYRYYywMg2uubC_-195" value="Tab" style="text;whiteSpace=wrap;labelBackgroundColor=none;fontSize=13;align=center;verticalAlign=middle;fontColor=#000000;html=1;container=0;" vertex="1" parent="BvFk9DYRYYywMg2uubC_-193">
          <mxGeometry width="40" height="40" as="geometry" />
        </mxCell>
        <mxCell id="BvFk9DYRYYywMg2uubC_-196" value="Page&lt;br&gt;Up&lt;br&gt;" style="text;whiteSpace=wrap;labelBackgroundColor=none;fontColor=#0000CC;fontSize=13;align=center;verticalAlign=middle;html=1;container=0;" vertex="1" parent="BvFk9DYRYYywMg2uubC_-193">
          <mxGeometry x="40" width="40" height="40" as="geometry" />
        </mxCell>
        <mxCell id="BvFk9DYRYYywMg2uubC_-197" value="Tab" style="text;whiteSpace=wrap;labelBackgroundColor=none;fontColor=#00CC00;fontSize=13;align=center;verticalAlign=middle;html=1;container=0;" vertex="1" parent="BvFk9DYRYYywMg2uubC_-193">
          <mxGeometry y="40" width="40" height="40" as="geometry" />
        </mxCell>
        <mxCell id="BvFk9DYRYYywMg2uubC_-198" value="Boot&lt;br&gt;loader&lt;br&gt;" style="text;whiteSpace=wrap;labelBackgroundColor=none;fontColor=#FF0000;fontSize=13;align=center;verticalAlign=middle;html=1;container=0;" vertex="1" parent="BvFk9DYRYYywMg2uubC_-193">
          <mxGeometry x="40" y="40" width="40" height="40" as="geometry" />
        </mxCell>
        <mxCell id="BvFk9DYRYYywMg2uubC_-199" value="" style="group" vertex="1" connectable="0" parent="1">
          <mxGeometry x="1322.9732245685009" y="350" width="80" height="80" as="geometry" />
        </mxCell>
        <mxCell id="BvFk9DYRYYywMg2uubC_-200" value="" style="rounded=1;strokeWidth=2;fillWeight=4;hachureGap=8;hachureAngle=45;fillColor=none;sketch=1;fillStyle=dashed;movable=1;resizable=1;rotatable=1;deletable=1;editable=1;locked=0;connectable=1;labelBackgroundColor=none;labelBorderColor=none;fontColor=none;noLabel=1;html=1;container=0;" vertex="1" parent="BvFk9DYRYYywMg2uubC_-199">
          <mxGeometry width="80" height="80" as="geometry" />
        </mxCell>
        <mxCell id="BvFk9DYRYYywMg2uubC_-201" value="Tab" style="text;whiteSpace=wrap;labelBackgroundColor=none;fontSize=13;align=center;verticalAlign=middle;fontColor=#000000;html=1;container=0;" vertex="1" parent="BvFk9DYRYYywMg2uubC_-199">
          <mxGeometry width="40" height="40" as="geometry" />
        </mxCell>
        <mxCell id="BvFk9DYRYYywMg2uubC_-202" value="Page&lt;br&gt;Up&lt;br&gt;" style="text;whiteSpace=wrap;labelBackgroundColor=none;fontColor=#0000CC;fontSize=13;align=center;verticalAlign=middle;html=1;container=0;" vertex="1" parent="BvFk9DYRYYywMg2uubC_-199">
          <mxGeometry x="40" width="40" height="40" as="geometry" />
        </mxCell>
        <mxCell id="BvFk9DYRYYywMg2uubC_-203" value="Tab" style="text;whiteSpace=wrap;labelBackgroundColor=none;fontColor=#00CC00;fontSize=13;align=center;verticalAlign=middle;html=1;container=0;" vertex="1" parent="BvFk9DYRYYywMg2uubC_-199">
          <mxGeometry y="40" width="40" height="40" as="geometry" />
        </mxCell>
        <mxCell id="BvFk9DYRYYywMg2uubC_-204" value="Boot&lt;br&gt;loader&lt;br&gt;" style="text;whiteSpace=wrap;labelBackgroundColor=none;fontColor=#FF0000;fontSize=13;align=center;verticalAlign=middle;html=1;container=0;" vertex="1" parent="BvFk9DYRYYywMg2uubC_-199">
          <mxGeometry x="40" y="40" width="40" height="40" as="geometry" />
        </mxCell>
        <mxCell id="BvFk9DYRYYywMg2uubC_-205" value="" style="group" vertex="1" connectable="0" parent="1">
          <mxGeometry x="1242.9732245685009" y="350" width="80" height="80" as="geometry" />
        </mxCell>
        <mxCell id="BvFk9DYRYYywMg2uubC_-206" value="" style="rounded=1;strokeWidth=2;fillWeight=4;hachureGap=8;hachureAngle=45;fillColor=none;sketch=1;fillStyle=dashed;movable=1;resizable=1;rotatable=1;deletable=1;editable=1;locked=0;connectable=1;labelBackgroundColor=none;labelBorderColor=none;fontColor=none;noLabel=1;html=1;container=0;" vertex="1" parent="BvFk9DYRYYywMg2uubC_-205">
          <mxGeometry width="80" height="80" as="geometry" />
        </mxCell>
        <mxCell id="BvFk9DYRYYywMg2uubC_-207" value="Tab" style="text;whiteSpace=wrap;labelBackgroundColor=none;fontSize=13;align=center;verticalAlign=middle;fontColor=#000000;html=1;container=0;" vertex="1" parent="BvFk9DYRYYywMg2uubC_-205">
          <mxGeometry width="40" height="40" as="geometry" />
        </mxCell>
        <mxCell id="BvFk9DYRYYywMg2uubC_-208" value="Page&lt;br&gt;Up&lt;br&gt;" style="text;whiteSpace=wrap;labelBackgroundColor=none;fontColor=#0000CC;fontSize=13;align=center;verticalAlign=middle;html=1;container=0;" vertex="1" parent="BvFk9DYRYYywMg2uubC_-205">
          <mxGeometry x="40" width="40" height="40" as="geometry" />
        </mxCell>
        <mxCell id="BvFk9DYRYYywMg2uubC_-209" value="Tab" style="text;whiteSpace=wrap;labelBackgroundColor=none;fontColor=#00CC00;fontSize=13;align=center;verticalAlign=middle;html=1;container=0;" vertex="1" parent="BvFk9DYRYYywMg2uubC_-205">
          <mxGeometry y="40" width="40" height="40" as="geometry" />
        </mxCell>
        <mxCell id="BvFk9DYRYYywMg2uubC_-210" value="Boot&lt;br&gt;loader&lt;br&gt;" style="text;whiteSpace=wrap;labelBackgroundColor=none;fontColor=#FF0000;fontSize=13;align=center;verticalAlign=middle;html=1;container=0;" vertex="1" parent="BvFk9DYRYYywMg2uubC_-205">
          <mxGeometry x="40" y="40" width="40" height="40" as="geometry" />
        </mxCell>
        <mxCell id="BvFk9DYRYYywMg2uubC_-211" value="" style="group" vertex="1" connectable="0" parent="1">
          <mxGeometry x="1161.9732245685009" y="335" width="80" height="80" as="geometry" />
        </mxCell>
        <mxCell id="BvFk9DYRYYywMg2uubC_-212" value="" style="rounded=1;strokeWidth=2;fillWeight=4;hachureGap=8;hachureAngle=45;fillColor=none;sketch=1;fillStyle=dashed;movable=1;resizable=1;rotatable=1;deletable=1;editable=1;locked=0;connectable=1;labelBackgroundColor=none;labelBorderColor=none;fontColor=none;noLabel=1;html=1;container=0;" vertex="1" parent="BvFk9DYRYYywMg2uubC_-211">
          <mxGeometry width="80" height="80" as="geometry" />
        </mxCell>
        <mxCell id="BvFk9DYRYYywMg2uubC_-213" value="Tab" style="text;whiteSpace=wrap;labelBackgroundColor=none;fontSize=13;align=center;verticalAlign=middle;fontColor=#000000;html=1;container=0;" vertex="1" parent="BvFk9DYRYYywMg2uubC_-211">
          <mxGeometry width="40" height="40" as="geometry" />
        </mxCell>
        <mxCell id="BvFk9DYRYYywMg2uubC_-214" value="Page&lt;br&gt;Up&lt;br&gt;" style="text;whiteSpace=wrap;labelBackgroundColor=none;fontColor=#0000CC;fontSize=13;align=center;verticalAlign=middle;html=1;container=0;" vertex="1" parent="BvFk9DYRYYywMg2uubC_-211">
          <mxGeometry x="40" width="40" height="40" as="geometry" />
        </mxCell>
        <mxCell id="BvFk9DYRYYywMg2uubC_-215" value="Tab" style="text;whiteSpace=wrap;labelBackgroundColor=none;fontColor=#00CC00;fontSize=13;align=center;verticalAlign=middle;html=1;container=0;" vertex="1" parent="BvFk9DYRYYywMg2uubC_-211">
          <mxGeometry y="40" width="40" height="40" as="geometry" />
        </mxCell>
        <mxCell id="BvFk9DYRYYywMg2uubC_-216" value="Boot&lt;br&gt;loader&lt;br&gt;" style="text;whiteSpace=wrap;labelBackgroundColor=none;fontColor=#FF0000;fontSize=13;align=center;verticalAlign=middle;html=1;container=0;" vertex="1" parent="BvFk9DYRYYywMg2uubC_-211">
          <mxGeometry x="40" y="40" width="40" height="40" as="geometry" />
        </mxCell>
        <mxCell id="BvFk9DYRYYywMg2uubC_-217" value="" style="group" vertex="1" connectable="0" parent="1">
          <mxGeometry x="1081.9732245685009" y="325" width="80" height="80" as="geometry" />
        </mxCell>
        <mxCell id="BvFk9DYRYYywMg2uubC_-218" value="" style="rounded=1;strokeWidth=2;fillWeight=4;hachureGap=8;hachureAngle=45;fillColor=none;sketch=1;fillStyle=dashed;movable=1;resizable=1;rotatable=1;deletable=1;editable=1;locked=0;connectable=1;labelBackgroundColor=none;labelBorderColor=none;fontColor=none;noLabel=1;html=1;container=0;" vertex="1" parent="BvFk9DYRYYywMg2uubC_-217">
          <mxGeometry width="80" height="80" as="geometry" />
        </mxCell>
        <mxCell id="BvFk9DYRYYywMg2uubC_-219" value="Tab" style="text;whiteSpace=wrap;labelBackgroundColor=none;fontSize=13;align=center;verticalAlign=middle;fontColor=#000000;html=1;container=0;" vertex="1" parent="BvFk9DYRYYywMg2uubC_-217">
          <mxGeometry width="40" height="40" as="geometry" />
        </mxCell>
        <mxCell id="BvFk9DYRYYywMg2uubC_-220" value="Page&lt;br&gt;Up&lt;br&gt;" style="text;whiteSpace=wrap;labelBackgroundColor=none;fontColor=#0000CC;fontSize=13;align=center;verticalAlign=middle;html=1;container=0;" vertex="1" parent="BvFk9DYRYYywMg2uubC_-217">
          <mxGeometry x="40" width="40" height="40" as="geometry" />
        </mxCell>
        <mxCell id="BvFk9DYRYYywMg2uubC_-221" value="Tab" style="text;whiteSpace=wrap;labelBackgroundColor=none;fontColor=#00CC00;fontSize=13;align=center;verticalAlign=middle;html=1;container=0;" vertex="1" parent="BvFk9DYRYYywMg2uubC_-217">
          <mxGeometry y="40" width="40" height="40" as="geometry" />
        </mxCell>
        <mxCell id="BvFk9DYRYYywMg2uubC_-222" value="Boot&lt;br&gt;loader&lt;br&gt;" style="text;whiteSpace=wrap;labelBackgroundColor=none;fontColor=#FF0000;fontSize=13;align=center;verticalAlign=middle;html=1;container=0;" vertex="1" parent="BvFk9DYRYYywMg2uubC_-217">
          <mxGeometry x="40" y="40" width="40" height="40" as="geometry" />
        </mxCell>
        <mxCell id="BvFk9DYRYYywMg2uubC_-223" value="" style="group" vertex="1" connectable="0" parent="1">
          <mxGeometry x="1001.9732245685009" y="335" width="80" height="80" as="geometry" />
        </mxCell>
        <mxCell id="BvFk9DYRYYywMg2uubC_-224" value="" style="rounded=1;strokeWidth=2;fillWeight=4;hachureGap=8;hachureAngle=45;fillColor=none;sketch=1;fillStyle=dashed;movable=1;resizable=1;rotatable=1;deletable=1;editable=1;locked=0;connectable=1;labelBackgroundColor=none;labelBorderColor=none;fontColor=none;noLabel=1;html=1;container=0;" vertex="1" parent="BvFk9DYRYYywMg2uubC_-223">
          <mxGeometry width="80" height="80" as="geometry" />
        </mxCell>
        <mxCell id="BvFk9DYRYYywMg2uubC_-225" value="Tab" style="text;whiteSpace=wrap;labelBackgroundColor=none;fontSize=13;align=center;verticalAlign=middle;fontColor=#000000;html=1;container=0;" vertex="1" parent="BvFk9DYRYYywMg2uubC_-223">
          <mxGeometry width="40" height="40" as="geometry" />
        </mxCell>
        <mxCell id="BvFk9DYRYYywMg2uubC_-226" value="Page&lt;br&gt;Up&lt;br&gt;" style="text;whiteSpace=wrap;labelBackgroundColor=none;fontColor=#0000CC;fontSize=13;align=center;verticalAlign=middle;html=1;container=0;" vertex="1" parent="BvFk9DYRYYywMg2uubC_-223">
          <mxGeometry x="40" width="40" height="40" as="geometry" />
        </mxCell>
        <mxCell id="BvFk9DYRYYywMg2uubC_-227" value="Tab" style="text;whiteSpace=wrap;labelBackgroundColor=none;fontColor=#00CC00;fontSize=13;align=center;verticalAlign=middle;html=1;container=0;" vertex="1" parent="BvFk9DYRYYywMg2uubC_-223">
          <mxGeometry y="40" width="40" height="40" as="geometry" />
        </mxCell>
        <mxCell id="BvFk9DYRYYywMg2uubC_-228" value="Boot&lt;br&gt;loader&lt;br&gt;" style="text;whiteSpace=wrap;labelBackgroundColor=none;fontColor=#FF0000;fontSize=13;align=center;verticalAlign=middle;html=1;container=0;" vertex="1" parent="BvFk9DYRYYywMg2uubC_-223">
          <mxGeometry x="40" y="40" width="40" height="40" as="geometry" />
        </mxCell>
        <mxCell id="BvFk9DYRYYywMg2uubC_-229" value="" style="group" vertex="1" connectable="0" parent="1">
          <mxGeometry x="921.9732245685009" y="343" width="80" height="80" as="geometry" />
        </mxCell>
        <mxCell id="BvFk9DYRYYywMg2uubC_-230" value="" style="rounded=1;strokeWidth=2;fillWeight=4;hachureGap=8;hachureAngle=45;fillColor=none;sketch=1;fillStyle=dashed;movable=1;resizable=1;rotatable=1;deletable=1;editable=1;locked=0;connectable=1;labelBackgroundColor=none;labelBorderColor=none;fontColor=none;noLabel=1;html=1;container=0;" vertex="1" parent="BvFk9DYRYYywMg2uubC_-229">
          <mxGeometry width="80" height="80" as="geometry" />
        </mxCell>
        <mxCell id="BvFk9DYRYYywMg2uubC_-231" value="Tab" style="text;whiteSpace=wrap;labelBackgroundColor=none;fontSize=13;align=center;verticalAlign=middle;fontColor=#000000;html=1;container=0;" vertex="1" parent="BvFk9DYRYYywMg2uubC_-229">
          <mxGeometry width="40" height="40" as="geometry" />
        </mxCell>
        <mxCell id="BvFk9DYRYYywMg2uubC_-232" value="Page&lt;br&gt;Up&lt;br&gt;" style="text;whiteSpace=wrap;labelBackgroundColor=none;fontColor=#0000CC;fontSize=13;align=center;verticalAlign=middle;html=1;container=0;" vertex="1" parent="BvFk9DYRYYywMg2uubC_-229">
          <mxGeometry x="40" width="40" height="40" as="geometry" />
        </mxCell>
        <mxCell id="BvFk9DYRYYywMg2uubC_-233" value="Tab" style="text;whiteSpace=wrap;labelBackgroundColor=none;fontColor=#00CC00;fontSize=13;align=center;verticalAlign=middle;html=1;container=0;" vertex="1" parent="BvFk9DYRYYywMg2uubC_-229">
          <mxGeometry y="40" width="40" height="40" as="geometry" />
        </mxCell>
        <mxCell id="BvFk9DYRYYywMg2uubC_-234" value="Boot&lt;br&gt;loader&lt;br&gt;" style="text;whiteSpace=wrap;labelBackgroundColor=none;fontColor=#FF0000;fontSize=13;align=center;verticalAlign=middle;html=1;container=0;" vertex="1" parent="BvFk9DYRYYywMg2uubC_-229">
          <mxGeometry x="40" y="40" width="40" height="40" as="geometry" />
        </mxCell>
        <mxCell id="BvFk9DYRYYywMg2uubC_-235" value="" style="group" vertex="1" connectable="0" parent="1">
          <mxGeometry x="1041.9732245685009" y="430" width="80" height="80" as="geometry" />
        </mxCell>
        <mxCell id="BvFk9DYRYYywMg2uubC_-236" value="" style="rounded=1;strokeWidth=2;fillWeight=4;hachureGap=8;hachureAngle=45;fillColor=none;sketch=1;fillStyle=dashed;movable=1;resizable=1;rotatable=1;deletable=1;editable=1;locked=0;connectable=1;labelBackgroundColor=none;labelBorderColor=none;fontColor=none;noLabel=1;html=1;container=0;" vertex="1" parent="BvFk9DYRYYywMg2uubC_-235">
          <mxGeometry width="80" height="80" as="geometry" />
        </mxCell>
        <mxCell id="BvFk9DYRYYywMg2uubC_-237" value="Tab" style="text;whiteSpace=wrap;labelBackgroundColor=none;fontSize=13;align=center;verticalAlign=middle;fontColor=#000000;html=1;container=0;" vertex="1" parent="BvFk9DYRYYywMg2uubC_-235">
          <mxGeometry width="40" height="40" as="geometry" />
        </mxCell>
        <mxCell id="BvFk9DYRYYywMg2uubC_-238" value="Page&lt;br&gt;Up&lt;br&gt;" style="text;whiteSpace=wrap;labelBackgroundColor=none;fontColor=#0000CC;fontSize=13;align=center;verticalAlign=middle;html=1;container=0;" vertex="1" parent="BvFk9DYRYYywMg2uubC_-235">
          <mxGeometry x="40" width="40" height="40" as="geometry" />
        </mxCell>
        <mxCell id="BvFk9DYRYYywMg2uubC_-239" value="Tab" style="text;whiteSpace=wrap;labelBackgroundColor=none;fontColor=#00CC00;fontSize=13;align=center;verticalAlign=middle;html=1;container=0;" vertex="1" parent="BvFk9DYRYYywMg2uubC_-235">
          <mxGeometry y="40" width="40" height="40" as="geometry" />
        </mxCell>
        <mxCell id="BvFk9DYRYYywMg2uubC_-240" value="Boot&lt;br&gt;loader&lt;br&gt;" style="text;whiteSpace=wrap;labelBackgroundColor=none;fontColor=#FF0000;fontSize=13;align=center;verticalAlign=middle;html=1;container=0;" vertex="1" parent="BvFk9DYRYYywMg2uubC_-235">
          <mxGeometry x="40" y="40" width="40" height="40" as="geometry" />
        </mxCell>
        <mxCell id="BvFk9DYRYYywMg2uubC_-241" value="" style="group;rotation=-15;" vertex="1" connectable="0" parent="1">
          <mxGeometry x="950.9732245685009" y="441" width="80" height="80" as="geometry" />
        </mxCell>
        <mxCell id="BvFk9DYRYYywMg2uubC_-242" value="" style="rounded=1;strokeWidth=2;fillWeight=4;hachureGap=8;hachureAngle=45;fillColor=none;sketch=1;fillStyle=dashed;movable=1;resizable=1;rotatable=1;deletable=1;editable=1;locked=0;connectable=1;labelBackgroundColor=none;labelBorderColor=none;fontColor=none;noLabel=1;html=1;container=0;rotation=-15;" vertex="1" parent="BvFk9DYRYYywMg2uubC_-241">
          <mxGeometry width="80" height="80" as="geometry" />
        </mxCell>
        <mxCell id="BvFk9DYRYYywMg2uubC_-243" value="Tab" style="text;whiteSpace=wrap;labelBackgroundColor=none;fontSize=13;align=center;verticalAlign=middle;fontColor=#000000;html=1;container=0;rotation=-15;" vertex="1" parent="BvFk9DYRYYywMg2uubC_-241">
          <mxGeometry x="-4" y="6" width="40" height="40" as="geometry" />
        </mxCell>
        <mxCell id="BvFk9DYRYYywMg2uubC_-244" value="Page&lt;br&gt;Up&lt;br&gt;" style="text;whiteSpace=wrap;labelBackgroundColor=none;fontColor=#0000CC;fontSize=13;align=center;verticalAlign=middle;html=1;container=0;rotation=-15;" vertex="1" parent="BvFk9DYRYYywMg2uubC_-241">
          <mxGeometry x="34" y="-4" width="40" height="40" as="geometry" />
        </mxCell>
        <mxCell id="BvFk9DYRYYywMg2uubC_-245" value="Tab" style="text;whiteSpace=wrap;labelBackgroundColor=none;fontColor=#00CC00;fontSize=13;align=center;verticalAlign=middle;html=1;container=0;rotation=-15;" vertex="1" parent="BvFk9DYRYYywMg2uubC_-241">
          <mxGeometry x="6" y="44" width="40" height="40" as="geometry" />
        </mxCell>
        <mxCell id="BvFk9DYRYYywMg2uubC_-246" value="Boot&lt;br&gt;loader&lt;br&gt;" style="text;whiteSpace=wrap;labelBackgroundColor=none;fontColor=#FF0000;fontSize=13;align=center;verticalAlign=middle;html=1;container=0;rotation=-15;" vertex="1" parent="BvFk9DYRYYywMg2uubC_-241">
          <mxGeometry x="44" y="34" width="40" height="40" as="geometry" />
        </mxCell>
        <mxCell id="BvFk9DYRYYywMg2uubC_-247" value="" style="group;rotation=-25;" vertex="1" connectable="0" parent="1">
          <mxGeometry x="860.59" y="450.34000000000015" width="80" height="100" as="geometry" />
        </mxCell>
        <mxCell id="BvFk9DYRYYywMg2uubC_-248" value="" style="rounded=1;strokeWidth=2;fillWeight=4;hachureGap=8;hachureAngle=45;fillColor=none;sketch=1;fillStyle=dashed;movable=1;resizable=1;rotatable=1;deletable=1;editable=1;locked=0;connectable=1;labelBackgroundColor=none;labelBorderColor=none;fontColor=none;noLabel=1;html=1;container=0;rotation=-25;" vertex="1" parent="BvFk9DYRYYywMg2uubC_-247">
          <mxGeometry x="3" y="-2" width="80" height="100" as="geometry" />
        </mxCell>
        <mxCell id="BvFk9DYRYYywMg2uubC_-249" value="Tab" style="text;whiteSpace=wrap;labelBackgroundColor=none;fontSize=13;align=center;verticalAlign=middle;fontColor=#000000;html=1;container=0;rotation=-25;" vertex="1" parent="BvFk9DYRYYywMg2uubC_-247">
          <mxGeometry x="-8" y="10" width="40" height="50" as="geometry" />
        </mxCell>
        <mxCell id="BvFk9DYRYYywMg2uubC_-250" value="Page&lt;br&gt;Up&lt;br&gt;" style="text;whiteSpace=wrap;labelBackgroundColor=none;fontColor=#0000CC;fontSize=13;align=center;verticalAlign=middle;html=1;container=0;rotation=-25;" vertex="1" parent="BvFk9DYRYYywMg2uubC_-247">
          <mxGeometry x="30" y="-6" width="40" height="50" as="geometry" />
        </mxCell>
        <mxCell id="BvFk9DYRYYywMg2uubC_-251" value="Tab" style="text;whiteSpace=wrap;labelBackgroundColor=none;fontColor=#00CC00;fontSize=13;align=center;verticalAlign=middle;html=1;container=0;rotation=-25;" vertex="1" parent="BvFk9DYRYYywMg2uubC_-247">
          <mxGeometry x="15" y="52" width="40" height="50" as="geometry" />
        </mxCell>
        <mxCell id="BvFk9DYRYYywMg2uubC_-252" value="Boot&lt;br&gt;loader&lt;br&gt;" style="text;whiteSpace=wrap;labelBackgroundColor=none;fontColor=#FF0000;fontSize=13;align=center;verticalAlign=middle;html=1;container=0;rotation=-25;" vertex="1" parent="BvFk9DYRYYywMg2uubC_-247">
          <mxGeometry x="52" y="37" width="40" height="50" as="geometry" />
        </mxCell>
      </root>
    </mxGraphModel>
  </diagram>
</mxfile>
